<?xml version="1.0" encoding="UTF-8"?>
<svg width="295px" height="27px" viewBox="0 0 295 27" version="1.1" xmlns="http://www.w3.org/2000/svg" xmlns:xlink="http://www.w3.org/1999/xlink">
    <!-- Generator: Sketch 47.1 (45422) - http://www.bohemiancoding.com/sketch -->
    <title>Custom Preset</title>
    <desc>Created with Sketch.</desc>
    <defs></defs>
    <g id="Page-1" stroke="none" stroke-width="1" fill="none" fill-rule="evenodd">
        <g id="Custom-Preset">
            <g id="Logo_LMR" transform="translate(2.000000, 1.000000)">
                <g id="Group-4" transform="translate(223.000000, 16.000000)" fill="#D8232A">
                    <path d="M0.367,4.75 C0.367,7.055 2.312,9 4.617,9 C6.996,9 8.94,7.055 8.94,4.75 C8.94,2.371 6.996,0.426 4.617,0.426 C2.312,0.426 0.367,2.371 0.367,4.75" id="Fill-1"></path>
                </g>
                <polyline id="Fill-3" fill="#1A1919" points="0 24.578 7.318 24.578 7.318 21.734 2.844 21.734 2.844 0.576 0 0.576 0 24.578"></polyline>
                <path d="M18.111,7.239 L18.909,15.702 L16.793,15.702 L17.73,7.239 C17.834,6.58 17.903,5.262 17.938,4.603 C17.973,5.262 18.042,6.58 18.111,7.239 Z M20.019,24.578 L23.14,24.578 L19.429,0.545 L16.446,0.545 L12.284,24.578 L15.51,24.578 L16.377,18.505 L19.255,18.505 L20.019,24.578 L20.019,24.578 Z" id="Fill-5" fill="#1A1919"></path>
                <path d="M36.898,24.578 L39.604,24.578 L39.604,0.576 L36.795,0.576 L36.795,11.849 C36.795,14.207 36.898,15.906 36.968,16.739 C36.24,13.444 32.563,0.576 32.563,0.576 L29.719,0.576 L29.719,24.578 L32.528,24.578 L32.528,13.236 C32.528,11.016 32.424,8.866 32.39,8.033 C33.014,11.675 36.898,24.578 36.898,24.578" id="Fill-6" fill="#1A1919"></path>
                <path d="M53.85,5.085 L53.85,20.104 C53.85,21.353 53.26,21.908 52.497,21.908 L50.728,21.908 L50.728,3.247 L52.497,3.247 C53.26,3.247 53.85,3.802 53.85,5.085 Z M52.497,24.578 C54.925,24.578 56.798,22.948 56.798,20 L56.798,5.189 C56.798,2.206 54.925,0.576 52.497,0.576 L47.919,0.576 L47.919,24.578 L52.497,24.578 L52.497,24.578 Z" id="Fill-7" fill="#1A1919"></path>
                <polyline id="Fill-8" fill="#1A1919" points="64.771 24.578 72.645 24.578 72.645 21.734 67.65 21.734 67.65 12.612 71.257 12.612 71.257 9.768 67.65 9.768 67.65 3.42 72.645 3.42 72.645 0.576 64.771 0.576 64.771 24.578"></polyline>
                <path d="M82.833,24.783 C85.503,24.783 87.134,23.066 87.134,20.075 L87.134,16.82 C87.134,14.535 85.677,12.769 84.255,11.28 C83.422,10.38 81.445,8.649 81.445,7.367 L81.445,5.116 C81.445,3.87 82.035,3.177 82.764,3.177 C83.804,3.177 84.116,3.731 84.116,5.393 L87.065,5.393 C87.065,1.721 85.261,0.368 82.798,0.368 C80.335,0.368 78.532,2.067 78.532,5.047 L78.532,7.541 C78.532,10.241 80.752,12.042 82.417,13.774 C83.214,14.639 84.186,15.713 84.186,16.959 L84.186,20.041 C84.186,21.287 83.596,21.981 82.833,21.981 C82.001,21.981 81.515,21.287 81.515,19.66 L78.532,19.66 C78.532,23.347 80.127,24.783 82.833,24.783" id="Fill-9" fill="#1A1919"></path>
                <path d="M105.611,24.578 L108.316,24.578 L108.316,0.576 L104.501,0.576 L101.796,13.791 C101.692,14.416 101.518,15.664 101.553,16.289 C101.553,15.664 101.379,14.416 101.241,13.791 L98.466,0.576 L94.408,0.576 L94.408,24.578 L97.113,24.578 L97.113,5.675 C97.183,6.334 97.322,7.687 97.46,8.276 L100.235,19.861 L102.836,19.861 L105.333,8.276 C105.438,7.756 105.542,6.611 105.611,5.952 L105.611,24.578" id="Fill-10" fill="#1A1919"></path>
                <path d="M120.962,24.786 C123.39,24.786 125.263,23.156 125.263,20.207 L125.263,0.576 L122.314,0.576 L122.314,20.312 C122.314,21.561 121.725,22.185 120.927,22.185 C120.164,22.185 119.574,21.561 119.574,20.312 L119.574,0.576 L116.626,0.576 L116.626,20.207 C116.626,23.156 118.499,24.786 120.962,24.786" id="Fill-11" fill="#1A1919"></path>
                <path d="M136.84,24.783 C139.511,24.783 141.141,23.066 141.141,20.075 L141.141,16.82 C141.141,14.535 139.685,12.769 138.263,11.28 C137.43,10.38 135.453,8.649 135.453,7.367 L135.453,5.116 C135.453,3.87 136.043,3.177 136.771,3.177 C137.812,3.177 138.124,3.731 138.124,5.393 L141.072,5.393 C141.072,1.721 139.268,0.368 136.806,0.368 C134.343,0.368 132.539,2.067 132.539,5.047 L132.539,7.541 C132.539,10.241 134.759,12.042 136.424,13.774 C137.222,14.639 138.193,15.713 138.193,16.959 L138.193,20.041 C138.193,21.287 137.604,21.981 136.84,21.981 C136.008,21.981 135.522,21.287 135.522,19.66 L132.539,19.66 C132.539,23.347 134.135,24.783 136.84,24.783" id="Fill-12" fill="#1A1919"></path>
                <polyline id="Fill-13" fill="#1A1919" points="147.201 24.578 154 24.578 154 21.734 152.022 21.734 152.022 3.42 154 3.42 154 0.576 147.201 0.576 147.201 3.42 149.213 3.42 149.213 21.734 147.201 21.734 147.201 24.578"></polyline>
                <path d="M168.837,24.578 L172.027,24.578 L166.409,11.086 L171.092,0.576 L168.004,0.576 L163.98,9.872 C164.051,9.455 164.086,8.658 164.086,7.999 L164.086,0.576 L161.103,0.576 L161.103,24.578 L164.086,24.578 L164.086,15.664 L164.675,14.242 L168.837,24.578" id="Fill-14" fill="#1A1919"></path>
                <path d="M184.121,5.085 L184.121,10.149 C184.121,10.947 183.566,11.779 182.699,11.779 L181.207,11.779 L181.207,3.247 L182.699,3.247 C183.496,3.247 184.121,3.836 184.121,5.085 Z M185.785,24.578 L189.081,24.578 L184.953,13.965 C186.307,13.236 187.104,11.849 187.104,10.08 L187.104,5.189 C187.104,2.241 185.23,0.576 182.699,0.576 L178.26,0.576 L178.26,24.578 L181.242,24.578 L181.242,14.416 L182.039,14.416 L185.785,24.578 L185.785,24.578 Z" id="Fill-15" fill="#1A1919"></path>
                <path d="M199.238,7.239 L200.036,15.702 L197.92,15.702 L198.856,7.239 C198.961,6.58 199.03,5.262 199.064,4.603 C199.1,5.262 199.169,6.58 199.238,7.239 Z M201.146,24.578 L204.268,24.578 L200.557,0.545 L197.573,0.545 L193.411,24.578 L196.637,24.578 L197.504,18.505 L200.383,18.505 L201.146,24.578 L201.146,24.578 Z" id="Fill-16" fill="#1A1919"></path>
                <polyline id="Fill-17" fill="#1A1919" points="214.836 3.42 217.957 3.42 217.957 0.576 208.766 0.576 208.766 3.42 211.887 3.42 211.887 24.578 214.836 24.578 214.836 3.42"></polyline>
                <path d="M246.732,24.708 L249.438,24.708 L249.438,0.706 L246.629,0.706 L246.629,11.979 C246.629,14.338 246.732,16.037 246.803,16.869 C246.074,13.574 242.397,0.706 242.397,0.706 L239.554,0.706 L239.554,24.708 L242.363,24.708 L242.363,13.366 C242.363,11.146 242.259,8.996 242.225,8.163 C242.848,11.806 246.732,24.708 246.732,24.708" id="Fill-18" fill="#1A1919"></path>
                <path d="M264.176,5.215 L264.176,10.279 C264.176,11.077 263.621,11.909 262.754,11.909 L261.262,11.909 L261.262,3.377 L262.754,3.377 C263.551,3.377 264.176,3.966 264.176,5.215 Z M265.84,24.708 L269.136,24.708 L265.008,14.095 C266.36,13.366 267.158,11.979 267.158,10.21 L267.158,5.319 C267.158,2.371 265.285,0.706 262.754,0.706 L258.314,0.706 L258.314,24.708 L261.297,24.708 L261.297,14.545 L262.094,14.545 L265.84,24.708 L265.84,24.708 Z" id="Fill-19" fill="#1A1919"></path>
                <path d="M287.734,24.708 L291.064,0.706 L287.804,0.706 L286.07,17.043 C286,17.736 285.966,19.089 285.966,19.783 C285.932,19.089 285.861,17.772 285.758,17.043 L283.954,5.354 L280.971,5.354 L279.307,16.904 C279.202,17.667 279.133,19.158 279.098,19.922 C279.063,19.158 278.994,17.528 278.924,16.904 L276.947,0.706 L273.584,0.706 L277.468,24.708 L280.693,24.708 L282.324,13.366 C282.428,12.603 282.497,11.181 282.497,10.453 C282.531,11.181 282.602,12.638 282.705,13.366 L284.51,24.708 L287.734,24.708" id="Fill-20" fill="#1A1919"></path>
            </g>
        </g>
    </g>
</svg>