<?xml version="1.0" encoding="utf-8"?>
<!-- Generator: Adobe Illustrator 25.4.1, SVG Export Plug-In . SVG Version: 6.00 Build 0)  -->
<svg version="1.1" id="Ebene_1" xmlns="http://www.w3.org/2000/svg" xmlns:xlink="http://www.w3.org/1999/xlink" x="0px" y="0px"
	 viewBox="0 0 126 136" style="enable-background:new 0 0 126 136;" xml:space="preserve">
<g id="Gruppe_10344">
	<path id="Pfad_14214" class="st2" d="M40.9,90.1h44.2V45.9H40.9V90.1z M107.2,49.6h11c2,0,3.7-1.6,3.7-3.7c0-2-1.6-3.7-3.7-3.7h-11
		v-3.7c0-8.1-6.6-14.7-14.7-14.7c0,0,0,0,0,0h-3.7v-11c0-2-1.6-3.7-3.7-3.7c-2,0-3.7,1.6-3.7,3.7v11H66.7v-11c0-2-1.6-3.7-3.7-3.7
		c0,0,0,0,0,0c-2,0-3.7,1.6-3.7,3.7v11H44.6v-11c0-2-1.6-3.7-3.7-3.7c-2,0-3.7,1.6-3.7,3.7v11h-3.7c-8.1,0-14.7,6.6-14.7,14.7
		c0,0,0,0,0,0v3.7h-11c-2,0-3.7,1.6-3.7,3.7c0,2,1.6,3.7,3.7,3.7h11v14.7h-11c-2,0-3.7,1.6-3.7,3.7c0,2,1.6,3.7,3.7,3.7h11v14.7h-11
		c-2,0-3.7,1.6-3.7,3.7s1.6,3.7,3.7,3.7h11v3.7c0,8.1,6.6,14.7,14.7,14.7c0,0,0,0,0,0h3.7v11c0,2,1.6,3.7,3.7,3.7s3.7-1.6,3.7-3.7
		v-11h14.7v11c0,2,1.6,3.7,3.7,3.7c2,0,3.7-1.6,3.7-3.7v-11h14.7v11c0,2,1.6,3.7,3.7,3.7c2,0,3.7-1.6,3.7-3.7v-11h3.7
		c8.1,0,14.7-6.6,14.7-14.7c0,0,0,0,0,0v-3.7h11c2,0,3.7-1.6,3.7-3.7s-1.6-3.7-3.7-3.7h-11V71.7h11c2,0,3.7-1.6,3.7-3.7
		c0-2-1.6-3.7-3.7-3.7h-11V49.6z M92.4,93.8c0,2-1.6,3.7-3.7,3.7H37.2c-2,0-3.7-1.6-3.7-3.7V42.2c0-2,1.6-3.7,3.7-3.7h51.5
		c2,0,3.7,1.6,3.7,3.7L92.4,93.8z"/>
</g>
</svg>
