<?xml version="1.0" encoding="utf-8"?>
<!-- Generator: Adobe Illustrator 25.4.1, SVG Export Plug-In . SVG Version: 6.00 Build 0)  -->
<svg version="1.1" id="Ebene_1" xmlns="http://www.w3.org/2000/svg" xmlns:xlink="http://www.w3.org/1999/xlink" x="0px" y="0px"
	 viewBox="0 0 42 41" style="enable-background:new 0 0 42 41;" xml:space="preserve">
<g id="Wiederholungsraster_18_00000043427573339520306670000005120499876295791256_" transform="translate(1792.408 109.643) rotate(-45)">
	<g id="Gruppe_10292_00000003794256521422731240000011466150686597820318_" transform="translate(-1762 -98)">
		
			<rect id="Rechteck_29751_00000098908210218630083890000010745681643688944806_" x="546.5" y="-1219.3" transform="matrix(-1 2.535182e-06 -2.535182e-06 -1 1096.9646 -2434.6804)" class="st4" width="4" height="4"/>
		
			<rect id="Rechteck_29752_00000146482069984921228100000008363081652418164400_" x="554.5" y="-1219.3" transform="matrix(-1 2.535182e-06 -2.535182e-06 -1 1112.9646 -2434.6804)" class="st4" width="4" height="4"/>
		
			<rect id="Rechteck_29753_00000039094358196901395020000003271737714658483892_" x="562.5" y="-1219.3" transform="matrix(-1 2.535182e-06 -2.535182e-06 -1 1128.9646 -2434.6804)" class="st4" width="4" height="4"/>
	</g>
	<g id="Gruppe_10292-2_00000044895407195329845270000018292729601198111415_" transform="translate(-1730 -98)">
		
			<rect id="Rechteck_29751-2_00000020367745020944997120000009919895637063190683_" x="546.5" y="-1219.3" transform="matrix(-1 2.535182e-06 -2.535182e-06 -1 1096.9645 -2434.6804)" class="st4" width="4" height="4"/>
		
			<rect id="Rechteck_29752-2_00000165203155905711883370000000911762341212392080_" x="554.5" y="-1219.3" transform="matrix(-1 2.535182e-06 -2.535182e-06 -1 1112.9645 -2434.6804)" class="st4" width="4" height="4"/>
		
			<rect id="Rechteck_29753-2_00000140703497341730549080000002573212979795905159_" x="562.5" y="-1219.3" transform="matrix(-1 2.535182e-06 -2.535182e-06 -1 1128.9645 -2434.6804)" class="st4" width="4" height="4"/>
	</g>
</g>
<g id="Wiederholungsraster_10_00000072273448722368129130000001313245355275517339_" transform="translate(1795.358 72.408) rotate(45)">
	<g id="Gruppe_10292-3_00000043419936497571085000000011592458705301085355_" transform="translate(-1762 -98)">
		
			<rect id="Rechteck_29751-3_00000163759269998541811800000010511365903030724785_" x="444.7" y="1313.5" transform="matrix(2.535182e-06 1 -1 2.535182e-06 1762.1755 868.8524)" class="st4" width="4" height="4"/>
		
			<rect id="Rechteck_29752-3_00000169516536081715616800000012620167372115324341_" x="452.7" y="1313.5" transform="matrix(2.535182e-06 1 -1 2.535182e-06 1770.1755 860.8524)" class="st4" width="4" height="4"/>
		
			<rect id="Rechteck_29753-3_00000155106516776591244470000006147120222118107820_" x="460.7" y="1313.5" transform="matrix(2.535182e-06 1 -1 2.535182e-06 1778.1754 852.8524)" class="st4" width="4" height="4"/>
		
			<rect id="Rechteck_29754-3_00000087398977916463323390000012882278263056679605_" x="468.7" y="1313.5" transform="matrix(2.535182e-06 1 -1 2.535182e-06 1786.1754 844.8524)" class="st4" width="4" height="4"/>
	</g>
	<g id="Gruppe_10292-4_00000160869147463488377550000007318268838421631383_" transform="translate(-1730 -98)">
		
			<rect id="Rechteck_29751-4_00000001659487382025320900000015731075088367154597_" x="444.7" y="1313.5" transform="matrix(2.535182e-06 1 -1 2.535182e-06 1762.1755 868.8524)" class="st4" width="4" height="4"/>
		
			<rect id="Rechteck_29752-4_00000116941646106638096020000003812607959372876724_" x="452.7" y="1313.5" transform="matrix(2.535182e-06 1 -1 2.535182e-06 1770.1755 860.8524)" class="st4" width="4" height="4"/>
		
			<rect id="Rechteck_29753-4_00000160897705606204743390000007608604268982781878_" x="460.7" y="1313.5" transform="matrix(2.535182e-06 1 -1 2.535182e-06 1778.1754 852.8524)" class="st4" width="4" height="4"/>
	</g>
</g>
</svg>
