<svg id="grid" data-name="grid" xmlns="http://www.w3.org/2000/svg" 
xmlns:xlink="http://www.w3.org/1999/xlink" viewBox="0 0 801.02 600.33">
<defs>
<clipPath id="clip-path" transform="translate(0.51 -0.33)">
<rect class="cls-1" x="-0.51" y="0.33" width="801.02" height="600.33"/></clipPath>
</defs><line class="cls-2" x1="211.01" x2="211.01" y2="600"/><line class="cls-2" x1="274.32" x2="274.32" y2="600"/><line class="cls-2" x1="337.64" x2="337.64" y2="600"/><line class="cls-2" x1="400.95" x2="400.95" y2="600"/><line class="cls-2" x1="464.27" x2="464.27" y2="600"/><g class="cls-3"><line class="cls-2" x1="800" y1="220.79" y2="220.79"/><line class="cls-2" x1="800" y1="284.1" y2="284.1"/><line class="cls-2" x1="800" y1="347.42" y2="347.42"/><line class="cls-2" x1="800" y1="410.74" y2="410.74"/><line class="cls-2" x1="800" y1="474.05" y2="474.05"/><line class="cls-2" x1="800" y1="537.37" y2="537.37"/></g><line class="cls-2" x1="527.59" x2="527.59" y2="600"/><line class="cls-2" x1="590.9" x2="590.9" y2="600"/><g class="cls-3"><line class="cls-2" x1="21.06" y1="0.33" x2="21.06" y2="600.33"/><line class="cls-2" x1="84.37" y1="0.33" x2="84.37" y2="600.33"/><line class="cls-2" x1="147.69" y1="0.33" x2="147.69" y2="600.33"/><line class="cls-2" x1="654.22" y1="0.33" x2="654.22" y2="600.33"/><line class="cls-2" x1="717.53" y1="0.33" x2="717.53" y2="600.33"/><line class="cls-2" x1="780.85" y1="0.33" x2="780.85" y2="600.33"/></g><line class="cls-2" x1="801.02" y1="30.84" x2="1.02" y2="30.84"/><line class="cls-2" x1="801.02" y1="94.16" x2="1.02" y2="94.16"/>
<line class="cls-2" x1="801.02" y1="157.47" x2="1.02" y2="157.47"/></svg>