<?xml version="1.0" encoding="utf-8"?>
<!-- Generator: Adobe Illustrator 25.4.1, SVG Export Plug-In . SVG Version: 6.00 Build 0)  -->
<svg version="1.1" id="Ebene_1" xmlns="http://www.w3.org/2000/svg" xmlns:xlink="http://www.w3.org/1999/xlink" x="0px" y="0px"
	 viewBox="0 0 54 54" style="enable-background:new 0 0 54 54;" xml:space="preserve">
<g>
	<g id="Gruppe_10304">
		<rect id="Rechteck_1698" x="0.5" y="0.5" class="st0" width="53" height="53"/>
	</g>
	<path id="lock" class="st1" d="M33.9,25.6l-0.7,0v-3.4c0-3.4-2.8-6.2-6.2-6.2s-6.2,2.8-6.2,6.2v3.4l-0.7,0c-1.5,0-2.8,1.2-2.8,2.8
		v6.9c0,1.5,1.2,2.8,2.8,2.8h13.8c1.5,0,2.8-1.2,2.8-2.8v-6.9C36.6,26.8,35.4,25.6,33.9,25.6z M23.6,22.2c0-1.9,1.5-3.5,3.5-3.5
		s3.5,1.5,3.5,3.5v3.4h-6.9V22.2z"/>
</g>
</svg>
