<?xml version="1.0" standalone="no"?>
<!DOCTYPE svg PUBLIC "-//W3C//DTD SVG 20010904//EN"
 "http://www.w3.org/TR/2001/REC-SVG-20010904/DTD/svg10.dtd">
<svg version="1.0" xmlns="http://www.w3.org/2000/svg"
 width="700.000000pt" height="700.000000pt" viewBox="0 0 700.000000 700.000000"
 preserveAspectRatio="xMidYMid meet">
<metadata>
Created by potrace 1.11, written by Peter Selinger 2001-2013
</metadata>
<g transform="translate(0.000000,700.000000) scale(0.100000,-0.100000)"
fill="#000000" stroke="none">
<path d="M3279 6926 c-2 -2 -42 -7 -89 -10 -47 -4 -96 -9 -110 -10 -14 -2 -50
-7 -80 -11 -30 -4 -58 -9 -61 -10 -3 -2 -28 -7 -55 -10 -27 -4 -57 -9 -66 -11
-10 -3 -29 -7 -43 -10 -66 -12 -262 -67 -374 -104 -288 -97 -605 -256 -840
-420 -35 -25 -73 -52 -85 -60 -159 -111 -416 -347 -561 -515 -33 -39 -63 -72
-66 -75 -36 -32 -240 -328 -321 -465 -184 -311 -342 -744 -403 -1100 -3 -16
-7 -39 -9 -50 -2 -11 -7 -45 -11 -75 -4 -30 -9 -64 -11 -75 -26 -128 -25 -686
1 -835 2 -14 6 -45 9 -70 6 -50 9 -63 37 -205 157 -788 623 -1531 1267 -2023
95 -72 320 -225 374 -253 305 -160 422 -212 613 -276 181 -61 367 -110 490
-129 28 -4 57 -9 65 -11 8 -1 34 -5 56 -8 23 -3 51 -7 61 -9 142 -28 663 -28
853 -1 14 2 48 6 75 10 248 33 589 128 834 232 120 51 303 141 361 178 22 14
42 25 46 25 19 0 416 277 449 314 6 6 37 34 70 61 115 97 299 287 411 426 306
379 529 818 649 1277 27 103 70 310 80 387 4 28 8 64 11 80 13 95 16 143 19
375 1 140 -1 289 -6 330 -4 41 -11 102 -15 135 -3 33 -8 69 -10 80 -2 11 -6
34 -9 50 -28 196 -97 450 -182 675 -211 554 -581 1063 -1048 1439 -98 79 -114
91 -137 106 -9 6 -64 43 -121 83 -58 39 -108 72 -110 72 -3 0 -36 19 -73 42
-89 54 -252 134 -384 191 -92 39 -328 123 -370 132 -8 2 -58 15 -110 28 -85
23 -158 39 -230 51 -14 2 -36 7 -50 10 -14 3 -47 8 -75 11 -27 3 -63 8 -80 10
-95 14 -164 17 -386 21 -135 2 -248 2 -250 0z"/>
</g>
</svg>
