<?xml version="1.0" encoding="UTF-8"?>
<!-- Generator: Adobe Illustrator 26.0.2, SVG Export Plug-In . SVG Version: 6.00 Build 0)  -->
<svg xmlns="http://www.w3.org/2000/svg" xmlns:xlink="http://www.w3.org/1999/xlink" version="1.1" id="Ebene_1" x="0px" y="0px" viewBox="0 0 1035 1055" style="enable-background:new 0 0 1035 1055;" xml:space="preserve">
<style type="text/css">
	.st0{fill:#363636;}
</style>
<metadata>
	
</metadata>
<linearGradient id="SVGID_1_" gradientUnits="userSpaceOnUse" x1="-142" y1="14" x2="-142" y2="13">
	<stop offset="0" style="stop-color:#656565"></stop>
	<stop offset="0.618" style="stop-color:#1B1B1B"></stop>
	<stop offset="0.6292" style="stop-color:#545454"></stop>
	<stop offset="0.9831" style="stop-color:#3E3E3E"></stop>
</linearGradient>
<g id="circle-white">
	<g id="Gruppe_3" transform="translate(48.25 61.946)">
		<g id="Gruppe_2">
			<g id="Gruppe_1">
				<path id="Pfad_3" class="st0" d="M252.7,955.4l6,2.7c4,1.6,9.8,4.3,17.7,7.2c22.6,8.6,46,14.9,69.9,18.8      c17,2.7,34.1,4.2,51.3,4.5c20.2,0.3,40.5-0.9,60.5-3.6c22.8-3.1,45.4-8.1,67.4-14.8c24.4-7.5,48.1-16.6,71.2-27.5      c48.2-22.6,97.2-54.4,143.5-94c48.7-41.7,91.8-89.4,128.3-142c19.4-27.7,36.6-56.8,51.7-87.1c7.6-15.4,14.6-31.1,20.8-47.2      c6.3-16.1,11.8-32.6,16.3-49.3c4.5-16.8,8-33.9,10.3-51.1c1.3-8.7,2-17.3,2.5-26c0.4-8.7,0.7-17.5,0.5-26.2s-0.7-17.5-1.6-26.2      c-0.5-4.3-0.9-8.7-1.6-13c-0.4-2.2-0.5-4.3-1.1-6.5l-1.3-6.5c-1.8-8.5-3.8-17.2-6.3-25.5c-1.1-4.2-2.5-8.3-4-12.5      c-0.7-2.2-1.4-4.2-2.2-6.1s-1.4-4.2-2.3-6.1l-2.5-6.1l-2.7-6l-1.3-3.1l-1.4-2.9l-2.9-6l-3.1-5.8l-1.4-2.9l-1.6-2.9l-3.3-5.8      l-3.4-5.6c-1.1-1.8-2.3-3.8-3.4-5.6c-1.3-1.8-2.3-3.6-3.6-5.6c-2.5-3.6-4.9-7.2-7.6-10.8c-5.1-7.2-10.7-13.9-16.3-20.8      c-11.3-13.4-23.5-26-36.5-37.8c-12.9-11.7-26.5-22.7-40.7-32.9c-28.2-20.4-58.2-37.9-88.7-53.3c-15.4-7.6-30.7-14.6-46.4-21.3      c-4-1.6-7.8-3.3-11.7-4.9s-7.8-3.1-11.7-4.7c-8-3.1-15.7-6-23.5-8.9c-31.3-11.4-62.7-21-93.8-28.9      c-30.3-7.8-61.1-13.9-92.2-18.2c-60.5-8.3-118.7-8.5-171.3,0.4c-13.2,2.2-25.8,4.9-38.1,8.1c-12.3,3.3-24.2,7-35.6,11.2      c-21.6,7.9-42.3,17.9-62,29.8c-9.2,5.6-17.9,11.6-26,17.5c-8.1,6.1-15.7,12.3-22.6,18.4c-12.9,11.4-24.9,23.7-36,36.9      c-5.1,6-9.6,11.7-13.7,17.3s-8,10.8-11.4,15.9c-6.9,9.9-12.1,18.8-16.4,26c-4.2,7.2-7.2,13-9.2,16.8c-2,3.8-3.1,5.8-3.1,5.8      s0.9-2,2.9-6c2-3.8,4.7-9.6,8.9-17c4-7.4,9.2-16.3,15.7-26.6c7.5-11.8,15.7-23.1,24.4-34c10.9-13.5,22.7-26.1,35.4-37.9      c15-13.9,31.3-26.4,48.6-37.2c19.7-12.5,40.6-22.9,62.3-31.3c24.2-9.2,49.2-16.2,74.6-20.8c27.6-4.9,55.6-7.5,83.7-7.8      c30-0.3,60,1.5,89.8,5.4c31.4,4.1,62.6,9.9,93.4,17.5c31.4,7.8,63.2,17.3,94.9,28.6s63.6,24,94.7,39.4      c31.6,15.4,61.9,33.5,90.5,53.9c14.4,10.4,28.3,21.7,41.6,33.6c13.4,12,25.9,25,37.6,38.7c5.8,6.9,11.6,13.9,16.8,21.3      c2.7,3.6,5.2,7.4,7.8,11.2c1.3,1.8,2.5,3.8,3.8,5.8c1.3,2,2.5,3.8,3.6,5.8l3.4,5.8l3.3,6l1.6,2.9l1.6,3.1l3.1,6.1l2.9,6.1      l1.4,3.1l1.4,3.1c0.9,2.2,1.8,4.2,2.7,6.3l2.5,6.3c0.9,2.2,1.6,4.3,2.3,6.3c0.7,2.2,1.6,4.3,2.3,6.5c1.4,4.3,2.9,8.7,4.2,13      c2.5,8.7,4.7,17.5,6.5,26.6l1.3,6.7c0.4,2.2,0.7,4.5,1.1,6.7c0.7,4.5,1.3,9,1.8,13.6c0.9,9,1.4,18.1,1.6,27.1      c0.2,9-0.2,18.1-0.5,27.1c-0.7,9-1.4,17.9-2.7,26.9c-2.5,17.7-6.1,35.3-10.8,52.6c-4.7,17.1-10.4,33.8-17,50.2      c-6.5,16.4-13.7,32.3-21.5,47.9c-15.4,30.6-33,60-52.8,88c-37.4,53-81.5,101-131.2,142.8c-47.3,39.8-97.2,71-146.2,93.4      s-97.2,35.6-140.8,40.8c-20.3,2.6-40.7,3.5-61.1,2.7c-17.3-0.6-34.6-2.5-51.7-5.6c-13.7-2.5-27.3-5.8-40.7-9.9      c-11.6-3.6-21.3-7.2-29.1-10.3s-13.6-5.8-17.5-7.6C254.7,956.5,252.7,955.4,252.7,955.4z"></path>
			</g>
		</g>
	</g>
	<g id="Gruppe_4" transform="translate(21.618 63.369)">
		<path id="Pfad_4" class="st0" d="M508.7,977.1c-52.6,0-105-8-155.2-23.7c-63.6-19.9-121.6-51-172.2-92.7    C-25.2,690.2-54.2,384.6,116.3,178.2c123.9-150,325.5-211.3,512-155.8c62.1,18.5,119.8,49.4,169.7,90.7    c50.6,41.7,92.2,92.7,123.8,151.4c30.5,56.7,50.2,118.6,58.2,182.5c8.1,64.7,4,128.5-12.3,189.4c-16.6,63-46.7,121.6-88.2,171.9    c-41.4,50.2-92.7,90.4-152,119.3c-56.7,27.6-118.5,43.7-183.6,48.1C532,976.7,520.4,977.1,508.7,977.1z M490.2,14.1    c-15.2,0-30.4,0.7-45.7,2.2C184.7,40.9-6,271.5,18.7,531.3c0,0.2,0,0.5,0.1,0.7c11.9,124.9,73,239.9,169.9,319.7    c49.6,40.9,106.8,71.6,168.2,90.5c60.1,18.8,123.1,26.2,186,22c63.6-4.2,124-20.1,179.3-47c57.8-28.2,107.7-67.2,148.2-116.2    l4.5,3.8l-4.5-3.8c40.5-49,69.8-106.1,86-167.5c15.9-59.5,20.1-121.8,12.1-185c-7.7-62.5-27-123.1-56.9-178.5    c-30.3-56.7-71.4-107-120.9-148C741.9,81.6,685.6,51.5,625,33.4C581.3,20.6,535.9,14.1,490.2,14.1z"></path>
	</g>
	<g id="Gruppe_5" transform="translate(44.938 0)">
		<path id="Pfad_5" class="st0" d="M489,1013.5c-26.4,0-52.8-2.5-78.8-7.4c-59.1-11.2-115.5-34.5-167.9-69.4    c-52.2-34.7-97.8-79.2-135-132.1c-38.9-55.2-67.4-117.1-84.2-182.5C5.9,555.8,0.9,488.2,8.3,421.7c7-64.3,25.3-125.2,54.2-180.9    c28.9-55.8,67-103.5,113.3-142C223.7,59,278.2,30.8,338.1,15.5C397.7,0.1,459.9-1.9,520.4,9.7c59.1,11.2,115.5,34.5,167.9,69.4    c52.2,34.7,97.8,79.2,135,132.1c38.9,55.2,67.4,117.1,84.2,182.5c17.2,66.3,22.2,133.9,14.8,200.4c-7,64.3-25.3,125.2-54.2,180.9    c-28.9,55.8-67,103.5-113.3,142c-47.9,39.8-102.5,67.9-162.3,83.3C558.7,1009.1,523.9,1013.5,489,1013.5z M441.6,13.8    c-94.5,0.1-185.9,33.3-258.4,93.8c-45,37.4-82.2,84-110.4,138.4S26.7,360.1,19.8,423c-7.2,65.2-2.3,131.2,14.5,196.3    s44.5,125.2,82.4,178.7c36.5,51.7,81,95.1,132.1,129c51,34,106.1,56.7,163.5,67.6c119,22.9,242-8.9,335-86.6    c45-37.4,82.2-84,110.4-138.4s46.1-114,52.9-176.9c7.2-65.2,2.3-131.2-14.5-196.3s-44.5-125.2-82.4-178.7    c-36.5-51.7-81-95.1-132.1-129c-51-34-106.1-56.7-163.5-67.6C493,16.3,467.3,13.8,441.6,13.8z"></path>
	</g>
	<path id="Pfad_6" class="st0" d="M5,636c2.3,14.3,5.6,28.5,9.8,42.5c4,14.3,8.9,28.6,14.1,42.6s11.2,28,17.7,41.4   s13.4,26.2,20.6,38.5c7.2,12.1,14.6,23.7,22,34.3s15,20.4,22.2,29.1s14.1,16.4,20.4,23.1c3.3,3.3,6.1,6.5,9,9.2   c1.4,1.4,2.7,2.7,4.2,4c1.3,1.3,2.5,2.5,3.8,3.6c2.3,2.3,4.5,4.3,6.5,6c1.8,1.8,3.6,3.3,4.9,4.3c2.7,2.3,4.2,3.6,4.2,3.6   s-1.4-1.3-4.2-3.4c-1.4-1.1-3.1-2.5-5.1-4.2s-4.2-3.6-6.7-5.8c-1.3-1.1-2.5-2.3-3.8-3.4c-1.4-1.3-2.7-2.5-4.2-4   c-2.9-2.7-6-5.8-9.2-9c-6.5-6.5-13.6-14.1-21-22.8s-15-18.3-22.8-28.9c-7.6-10.5-15.4-22-22.6-34.2c-15.3-25.5-28.3-52.3-38.9-80.1   c-5.4-14.3-10.1-28.7-14.1-43"></path>
</g>
</svg>
