<?xml version="1.0" encoding="UTF-8"?>
<!-- Generator: Adobe Illustrator 26.0.2, SVG Export Plug-In . SVG Version: 6.00 Build 0)  -->
<svg xmlns="http://www.w3.org/2000/svg" xmlns:xlink="http://www.w3.org/1999/xlink" version="1.1"  x="0px" y="0px" viewBox="0 0 20 24" style="enable-background:new 0 0 20 24;" xml:space="preserve" role="img">
<title>Bulletpoint</title>
<style type="text/css">
.st0 {fill: #fff;}
</style>
<linearGradient gradientUnits="userSpaceOnUse" x1="-631" y1="-500" x2="-631" y2="-501">
 	<stop offset="0" style="stop-color:#656565"></stop>
	<stop offset="0.618" style="stop-color:#1B1B1B"></stop>
	<stop offset="0.6292" style="stop-color:#545454"></stop>
	<stop offset="0.9831" style="stop-color:#3E3E3E"></stop>
</linearGradient>
<path class="st0" d="M5.9,12.6c1.9,1.6,2.9,4.1,2.6,6.6c-0.1,0.4,0.7,0.5,0.7,0.1  c0.9-5.5,3.2-10.7,6.6-15.1c1-1.2,2.1-2.3,3.2-3.5c0.2-0.2-0.1-0.6-0.3-0.4c-1.1,0.9-2.1,1.9-3,3c-0.9,1.1-1.7,2.2-2.5,3.4  c-1.5,2.4-2.8,5-3.6,7.8C9.3,15,9.1,15.7,9,16.4c-0.4-1.7-1.3-3.2-2.6-4.3"></path>
<g transform="translate(0 4.962)">
	<g  transform="translate(1.276 1.638)">
		<g>
			<g>
				<path class="st0" d="M4.3,16.7L4.3,16.7c0.2,0.1,0.3,0.1,0.4,0.2C5.1,17,5.6,17.1,6,17.2c0.3,0,0.6,0.1,0.9,0.1      c0.4,0,0.7,0,1.1-0.1c0.4-0.1,0.8-0.1,1.2-0.3c0.4-0.1,0.8-0.3,1.2-0.5c0.9-0.4,1.7-1,2.5-1.6c0.8-0.7,1.6-1.5,2.2-2.5      c0.3-0.5,0.6-1,0.9-1.5c0.1-0.3,0.3-0.5,0.4-0.8c0.1-0.3,0.2-0.6,0.3-0.9c0.1-0.3,0.1-0.6,0.2-0.9c0-0.2,0-0.3,0-0.5      c0-0.2,0-0.3,0-0.5s0-0.3,0-0.5c0-0.1,0-0.2,0-0.2c0,0,0-0.1,0-0.1l0-0.1c0-0.1-0.1-0.3-0.1-0.4c0-0.1,0-0.1-0.1-0.2      c0,0,0-0.1,0-0.1s0-0.1,0-0.1l0-0.1l0-0.1l0-0.1l0,0l0-0.1l-0.1-0.1l0,0l0,0l-0.1-0.1l-0.1-0.1L16,4.7c0,0,0-0.1-0.1-0.1      c0-0.1-0.1-0.1-0.1-0.2c-0.1-0.1-0.2-0.2-0.3-0.4c-0.2-0.2-0.4-0.4-0.6-0.7c-0.2-0.2-0.5-0.4-0.7-0.6c-0.5-0.3-1-0.7-1.5-0.9      c-0.3-0.1-0.5-0.3-0.8-0.4l-0.2-0.1l-0.2-0.1c-0.1-0.1-0.3-0.1-0.4-0.2c-0.5-0.2-1.1-0.4-1.6-0.5C8.9,0.6,8.3,0.5,7.8,0.4      c-1-0.1-2-0.1-3,0c-0.2,0-0.5,0.1-0.7,0.1C3.9,0.6,3.7,0.7,3.5,0.8C3.2,0.9,2.8,1.1,2.4,1.3C2.3,1.4,2.1,1.5,2,1.6      S1.7,1.8,1.6,1.9C1.4,2.1,1.2,2.3,1,2.6C0.9,2.7,0.8,2.8,0.7,2.9S0.6,3,0.5,3.1C0.4,3.3,0.3,3.5,0.3,3.6S0.1,3.8,0.1,3.9L0,4      c0,0,0,0,0-0.1s0.1-0.2,0.2-0.3s0.2-0.3,0.3-0.5c0.1-0.2,0.3-0.4,0.4-0.6c0.2-0.2,0.4-0.5,0.6-0.7c0.3-0.2,0.5-0.5,0.8-0.6      C2.7,1,3.1,0.8,3.5,0.7c0.4-0.2,0.9-0.3,1.3-0.4c0.5-0.1,1-0.1,1.5-0.1c0.5,0,1,0,1.6,0.1c0.5,0.1,1.1,0.2,1.6,0.3      c0.5,0.1,1.1,0.3,1.7,0.5c0.6,0.2,1.1,0.4,1.6,0.7c0.5,0.3,1.1,0.6,1.6,0.9c0.3,0.2,0.5,0.4,0.7,0.6c0.2,0.2,0.5,0.4,0.7,0.7      c0.1,0.1,0.2,0.2,0.3,0.4c0,0.1,0.1,0.1,0.1,0.2c0,0,0,0.1,0.1,0.1s0,0.1,0.1,0.1l0.1,0.1l0.1,0.1l0,0l0,0.1l0.1,0.1l0,0.1      l0,0.1l0,0.1c0,0,0,0.1,0,0.1l0,0.1c0,0,0,0.1,0,0.1s0,0.1,0,0.1c0,0.1,0,0.2,0.1,0.2c0,0.1,0.1,0.3,0.1,0.5l0,0.1      c0,0,0,0.1,0,0.1c0,0.1,0,0.2,0,0.2c0,0.2,0,0.3,0,0.5c0,0.2,0,0.3,0,0.5c0,0.2,0,0.3,0,0.5c0,0.3-0.1,0.6-0.2,0.9      c-0.1,0.3-0.2,0.6-0.3,0.9c-0.1,0.3-0.2,0.6-0.4,0.8c-0.3,0.5-0.6,1-0.9,1.5c-0.7,0.9-1.4,1.7-2.3,2.5c-0.8,0.6-1.6,1.2-2.5,1.6      c-0.8,0.4-1.6,0.6-2.5,0.7c-0.4,0-0.7,0.1-1.1,0c-0.3,0-0.6,0-0.9-0.1c-0.2,0-0.5-0.1-0.7-0.2C5,17,4.9,16.9,4.7,16.8      S4.5,16.7,4.3,16.7C4.4,16.7,4.3,16.7,4.3,16.7z"></path>
			</g>
		</g>
	</g>
	<g  transform="translate(0.572 1.676)">
		<path class="st0" d="M8.8,16.9c-0.9,0-1.8-0.1-2.7-0.4c-1.1-0.3-2.1-0.9-3-1.6c-1.7-1.4-2.8-3.4-3-5.6    C-0.1,7.1,0.5,4.9,2,3.2c0.7-0.9,1.6-1.6,2.6-2.1c2-1,4.2-1.2,6.3-0.6c1.1,0.3,2.1,0.8,3,1.6c0.9,0.7,1.6,1.6,2.2,2.6    c0.5,1,0.9,2,1,3.1c0.1,1.1,0.1,2.2-0.2,3.3c-0.3,1.1-0.8,2.1-1.5,2.9c-0.7,0.9-1.6,1.6-2.6,2c-1,0.5-2.1,0.8-3.2,0.8    C9.2,16.9,9,16.9,8.8,16.9z M8.5,0.4c-0.3,0-0.5,0-0.8,0c-1.1,0.1-2.1,0.4-3,0.9c-1,0.5-1.8,1.2-2.5,2c-2.9,3.4-2.4,8.5,1,11.3    c0,0,0.1,0.1,0.1,0.1c0.9,0.7,1.9,1.2,2.9,1.6c1,0.3,2.1,0.4,3.2,0.4c1.1-0.1,2.1-0.3,3.1-0.8c1-0.5,1.9-1.2,2.6-2l0.1,0.1    l-0.1-0.1c0.7-0.8,1.2-1.8,1.5-2.9c0.3-1,0.4-2.1,0.2-3.2c-0.3-2.2-1.4-4.2-3.1-5.6c-0.9-0.7-1.8-1.2-2.9-1.5    C10.1,0.5,9.3,0.4,8.5,0.4L8.5,0.4z"></path>
	</g>
	<g  transform="translate(1.189 0)">
		<path class="st0" d="M8.2,17.9c-0.4,0-0.9,0-1.3-0.1c-1-0.2-2-0.6-2.8-1.2c-0.9-0.6-1.7-1.4-2.3-2.3    c-0.7-1-1.1-2.1-1.4-3.2C0,9.9,0,8.7,0.1,7.5C0.2,6.4,0.5,5.4,1,4.4c0.5-0.9,1.1-1.8,1.9-2.5c0.8-0.7,1.7-1.2,2.7-1.5    c1-0.3,2.1-0.3,3.1-0.1c1,0.2,2,0.6,2.8,1.2c0.9,0.6,1.7,1.4,2.3,2.3c0.7,1,1.1,2.1,1.4,3.2c0.3,1.1,0.4,2.3,0.2,3.5    c-0.1,1.1-0.4,2.2-0.9,3.2c-0.5,0.9-1.1,1.8-1.9,2.5c-0.8,0.7-1.7,1.2-2.7,1.5C9.4,17.8,8.8,17.9,8.2,17.9z M7.4,0.4    c-0.6,0-1.1,0.1-1.7,0.2C4.7,0.9,3.8,1.4,3,2C2.3,2.7,1.6,3.5,1.2,4.5c-0.5,1-0.8,2-0.9,3.1c-0.1,1.1,0,2.3,0.2,3.4    c0.3,1.1,0.7,2.2,1.4,3.1c0.6,0.9,1.4,1.6,2.2,2.3c0.8,0.6,1.8,1,2.8,1.2c1,0.2,2,0.2,3-0.1c1-0.3,1.9-0.7,2.7-1.4    c0.8-0.7,1.4-1.5,1.9-2.4c0.5-1,0.8-2,0.9-3.1c0.1-1.1,0-2.3-0.2-3.4C14.8,6,14.3,4.9,13.7,4c-0.6-0.9-1.4-1.6-2.2-2.3    c-0.8-0.6-1.8-1-2.8-1.2C8.3,0.4,7.8,0.4,7.4,0.4z"></path>
	</g>
	<path class="st0" d="M0,7.9C0.1,8.3,0.2,8.7,0.3,9c0.1,0.4,0.2,0.8,0.4,1.1s0.3,0.7,0.5,1.1s0.4,0.7,0.5,1   s0.4,0.6,0.6,0.9s0.4,0.5,0.6,0.8c0.2,0.2,0.4,0.4,0.5,0.6c0.1,0.1,0.2,0.2,0.2,0.2c0,0,0.1,0.1,0.1,0.1S3.8,15,3.8,15   C3.9,15.1,4,15.1,4,15.2c0,0,0.1,0.1,0.1,0.1l0.1,0.1c0,0,0,0-0.1-0.1c0,0-0.1-0.1-0.1-0.1c-0.1,0-0.1-0.1-0.2-0.2   c0,0-0.1-0.1-0.1-0.1s-0.1-0.1-0.1-0.1c-0.1-0.1-0.2-0.2-0.2-0.2C3.2,14.4,3,14.2,2.8,14s-0.4-0.5-0.6-0.8s-0.4-0.6-0.6-0.9   c-0.4-0.7-0.7-1.4-1-2.1C0.4,9.8,0.3,9.4,0.2,9.1"></path>
</g>
</svg>
