<?xml version="1.0" encoding="UTF-8"?>
<!-- Generator: Adobe Illustrator 26.0.2, SVG Export Plug-In . SVG Version: 6.00 Build 0)  -->
<svg xmlns="http://www.w3.org/2000/svg" xmlns:xlink="http://www.w3.org/1999/xlink" version="1.1" id="Ebene_1" x="0px" y="0px" viewBox="0 0 30 21" style="enable-background:new 0 0 30 21;" xml:space="preserve">
<style type="text/css">
	.st0{fill:#020203;}
</style>
<metadata>
	
</metadata>
<linearGradient id="SVGID_1_" gradientUnits="userSpaceOnUse" x1="-631" y1="-499" x2="-631" y2="-500">
	<stop offset="0" style="stop-color:#656565"></stop>
	<stop offset="0.618" style="stop-color:#1B1B1B"></stop>
	<stop offset="0.6292" style="stop-color:#545454"></stop>
	<stop offset="0.9831" style="stop-color:#3E3E3E"></stop>
</linearGradient>
<path id="mail" class="st0" d="M29.9,0.8C29.9,0.8,29.9,0.8,29.9,0.8c-0.2-0.1-0.3,0.1-0.3,0.3C28.7,1,27.7,1,26.7,1  c-1.5,0-3-0.3-4.6-0.3c-3.1-0.1-6,0.1-9.2-0.1C10.9,0.3,8.8,0.1,6.7,0C6,0,5.3,0,4.6,0.1C4.3,0.2,4,0.3,3.8,0.3c0,0-0.1,0-0.1,0  c-0.1,0-0.1,0-0.2,0l0,0c0-0.1-0.2,0.1-0.2,0.1v0c0,0,0,0,0,0c0,0,0,0,0,0C3.1,0.6,3,0.7,3.1,0.8c0,0,0,0,0.1,0  C2.9,1.7,2.6,2.6,2.4,3.5c-0.5,2-1,4.1-1.3,6.2c-0.1,1.1-0.4,2.1-0.6,3.1c-0.1,0.4-0.2,0.7-0.3,1c0,0.2,0,0.4,0,0.5  c-0.1,0.1-0.3,0.2-0.1,0.3c0.1,0.1,0.2-0.1,0.3-0.1l0,0c0.2,0.2,0.3,0.3,0.5,0.4c2.2,0.3,4.4,0.7,6.5,1.4C7.5,16.5,9.2,17,9.2,17  c0.3,0.1,0.6,0.2,0.9,0.2c0.4,0.1,0.9,0.2,1.4,0.3c0.3,0.1,1,0.2,1.1,0.2c2.5,0.6,5,1.4,7.4,2.4c0.8,0.3,1.6,0.5,2.4,0.6  c0.4,0.1,1.1,0.2,1.1,0.2c0.1,0,0.1-0.1,0.2-0.1C23.8,21,24,21,24,21c0.1-0.1,0-0.2-0.1-0.3c0.8-1.6,1.4-3.4,1.5-5.2  c0.4-2.5,1.1-4.9,2-7.3C28,6.7,28.4,5,29,3.7c0.2-0.5,0.4-0.8,0.6-1.4c0.1-0.2,0.1-0.5,0.1-0.4c0,0.1,0.1-0.2,0.1-0.4c0,0,0,0,0.1,0  c0,0,0-0.1,0-0.1c0-0.1,0-0.2,0.1-0.3C30,1,29.9,0.8,29.9,0.8z M5.1,0.3c3.1,0,6.1,0.4,9.2,0.7c0.9,0.1,1.8,0.1,2.8,0.1L18.6,1  c0.1,0,0.3,0,0.3,0c1.3,0,2.8,0,4,0.1c0.5,0,0.9,0,1.4,0.1c0.2,0,0.5,0,0.7,0c0.3,0,0.5,0.1,0.8,0.1h0.4c0.6,0.1,1.2,0.1,1.8,0.1  c0.3,0,0.6,0.2,0.9,0.1c0.2,0,0.4,0,0.7,0.1v0c-0.2-0.2-0.7,0.3-0.9,0.5c-1.2,0.7-2.5,1.3-3.8,1.9c-2.5,1.3-5,2.5-7.5,3.8  c0,0-0.1-0.1-0.1-0.1c-0.2,0-0.2,0.1-0.2,0.3C16.9,7.9,16.8,8,16.7,8c-0.9,0.5-1.8,1-2.7,1.5c-0.3,0.2-0.6,0.3-0.9,0.4  c0,0-0.1,0-0.1,0.1C13,10,13,9.9,13,9.9c0-0.1-0.7-0.2-1-0.4c-0.3-0.2-0.6-0.4-0.8-0.7C10,7.6,8.8,6.5,7.5,5.3  C7.1,5,6.7,4.6,6.3,4.2C6.2,3.9,5.8,3.5,5.8,3.5C5.8,3.4,5.7,3.3,5.6,3.2c-0.6-0.5-1-1-1.5-1.6C4,1.4,3.9,1.2,3.8,1  C3.7,0.9,3.7,0.8,3.6,0.7c0,0,0.1,0,0.1,0C4.1,0.5,5,0.3,5.1,0.3z M0,14.5l0.2-0.2v0C0.1,14.5,0,14.5,0,14.5z M16.7,18.4  c-0.4-0.2-1-0.1-1.4-0.3c-2.2-0.6-4.4-1.1-6.6-1.7c-1.8-0.4-3.5-0.9-5.1-1.4c-0.6-0.2-1.2-0.3-1.9-0.4c-0.3,0-0.6,0-0.8-0.1  c-0.1-0.1-0.2-0.2-0.2-0.2c2-1.3,3.6-3.1,5.5-4.4c0.7-0.5,1.3-1.1,1.8-1.8C7.9,8,8.1,7.8,8.3,7.6c0.1-0.1,0.3-0.2,0.4-0.3  c0.1,0,0.1,0,0.2-0.1c0,0,0,0,0,0l0,0C9,7.2,8.6,7.1,8.6,7.1c0,0,0,0-0.1,0l0,0l0,0C8.4,7.3,8.1,7.5,8.1,7.5  c-1.7,1.7-3.4,3.3-5.3,4.8c-0.5,0.4-1,0.9-1.6,1.3C1,13.8,0.7,14,0.5,14.2c0.2-0.6,0.3-1.2,0.4-1.9c0.1-0.3,0.1-1,0.1-1  c0.2-0.6,0.3-1.1,0.4-1.7c0-0.3,0.1-0.9,0.1-0.9c0.3-1.1,0.6-2.2,0.8-3.2C2.4,4.7,2.5,4,2.7,3.3C2.9,2.7,3,2,3.3,1.4  c0-0.1,0.1-0.2,0.1-0.3C3.6,1.3,3.8,1.6,4,1.9c0.1,0.2,0.3,0.4,0.4,0.5v0c0,0,0,0,0,0l0.8,0.8c0.1,0.1,0.2,0.3,0.3,0.5  C7.1,5.4,8.7,7,10.4,8.4c0.4,0.3,1.5,1.6,1.7,1.5c0.2-0.1,0.6,0.2,0.6,0.2v0c0,0,0,0,0.1,0c0,0,0,0,0,0v0.1l0,0  c0,0.1,0.1,0.1,0.1,0.1H13c0,0,0.1,0,0.1-0.1c1.4-0.6,2.7-1.3,4-2c0,0,0,0,0,0.1c0.3,0.6,0.6,1.4,0.9,2c0.1,0.2,0.2,0.4,0.4,0.6  c0.1,0.1,0.1,0.2,0.2,0.3c0.4,1.1,0.9,2.1,1.5,3.1c0.1,0.1,0.3,1.3,0.4,1.3c0.1,0.2,0.2,0.4,0.2,0.6c0.2,0.5,0.5,1,0.8,1.5  c0.3,0.7,0.7,1.3,1.1,1.9c0.1,0.1,0.4,0.6,0.4,0.6c-0.1,0.2,0.2,0.4,0.4,0.5C21.1,20.4,18.9,19.1,16.7,18.4z M28.7,3.8  c-0.8,2.7-1.9,5.6-2.6,8.4c-0.3,0.9-0.6,1.9-0.8,2.9c-0.2,1.3-0.5,2.6-1,3.8c-0.1,0.4-0.2,0.8-0.4,1.2c-0.1,0.1-0.1,0.2-0.2,0.3  c-0.1-0.1-0.3-0.2-0.3-0.3c-0.5-0.7-0.9-1.3-1.4-2c-0.1-0.3-0.3-0.5-0.4-0.8c-0.1-0.2-0.2-0.4-0.2-0.4l0,0c-0.7-1.3-1.1-2.6-1.7-3.9  c-0.2-0.4-0.4-0.8-0.7-1.3C19,11.4,18.8,11,18.7,11c-0.4-0.6-0.6-1.2-0.9-1.8c-0.1-0.3-0.3-0.6-0.5-0.9c0,0,0-0.1,0-0.1  c2.7-1.5,5.5-3.2,8.3-4.4c1.1-0.4,2.2-1,3.2-1.6c0.1-0.1,0.4-0.3,0.6-0.4c-0.1,0.2-0.3,0.8-0.4,1.1C28.9,3.2,28.7,3.7,28.7,3.8z   M29.9,0.8L29.9,0.8C29.9,0.8,29.9,0.8,29.9,0.8C30,0.9,29.9,0.8,29.9,0.8L29.9,0.8z"></path>
</svg>
