<?xml version="1.0" encoding="utf-8"?>
<!-- Generator: Adobe Illustrator 26.0.2, SVG Export Plug-In . SVG Version: 6.00 Build 0)  -->
<!DOCTYPE svg PUBLIC "-//W3C//DTD SVG 1.1//EN" "http://www.w3.org/Graphics/SVG/1.1/DTD/svg11.dtd" [
	<!ENTITY ns_extend "http://ns.adobe.com/Extensibility/1.0/">
	<!ENTITY ns_ai "http://ns.adobe.com/AdobeIllustrator/10.0/">
	<!ENTITY ns_graphs "http://ns.adobe.com/Graphs/1.0/">
	<!ENTITY ns_vars "http://ns.adobe.com/Variables/1.0/">
	<!ENTITY ns_imrep "http://ns.adobe.com/ImageReplacement/1.0/">
	<!ENTITY ns_sfw "http://ns.adobe.com/SaveForWeb/1.0/">
	<!ENTITY ns_custom "http://ns.adobe.com/GenericCustomNamespace/1.0/">
	<!ENTITY ns_adobe_xpath "http://ns.adobe.com/XPath/1.0/">
]>
<svg version="1.1" id="Ebene_1" xmlns:x="&ns_extend;" xmlns:i="&ns_ai;" xmlns:graph="&ns_graphs;"
	 xmlns="http://www.w3.org/2000/svg" xmlns:xlink="http://www.w3.org/1999/xlink" x="0px" y="0px" viewBox="0 0 75 76"
	 style="enable-background:new 0 0 75 76;" xml:space="preserve">
<style type="text/css">
	.Schlagschatten{fill:none;}
	.Schein_x0020_nach_x0020_außen_x0020__x002D__x0020_5_x0020_Pt_x002E_{fill:none;}
	.Blauer_x0020_Neonrahmen{fill:none;stroke:#8AACDA;stroke-width:7;stroke-linecap:round;stroke-linejoin:round;}
	.Lichter_x0020_Chrom{fill:url(#SVGID_1_);stroke:#FFFFFF;stroke-width:0.3629;stroke-miterlimit:1;}
	.Jive_GS{fill:#FFDD00;}
	.Alyssa_GS{fill:#A6D0E4;}
	.st0{opacity:0.75;}
	.st1{fill:#D8232A;}
	.st2{fill:#363636;}
</style>
<metadata>
	<sfw  xmlns="&ns_sfw;">
		<slices></slices>
		<sliceSourceBounds  bottomLeftOrigin="true" height="75.4" width="75" x="511" y="-646.4"></sliceSourceBounds>
	</sfw>
</metadata>
<linearGradient id="SVGID_1_" gradientUnits="userSpaceOnUse" x1="-511" y1="-571" x2="-511" y2="-572">
	<stop  offset="0" style="stop-color:#656565"/>
	<stop  offset="0.618" style="stop-color:#1B1B1B"/>
	<stop  offset="0.6292" style="stop-color:#545454"/>
	<stop  offset="0.9831" style="stop-color:#3E3E3E"/>
</linearGradient>
<g id="circle-white" class="st0">
	<g id="Gruppe_3" transform="translate(1.683 2.161)">
		<g id="Gruppe_2">
			<g id="Gruppe_1">
				<path id="Pfad_3" class="st1" d="M18.6,70.6l0.4,0.2c0.3,0.1,0.7,0.3,1.3,0.5c1.7,0.6,3.5,1.1,5.3,1.4c1.3,0.2,2.6,0.3,3.9,0.3
					c1.5,0,3-0.1,4.5-0.3c1.7-0.2,3.4-0.6,5.1-1.1c1.8-0.6,3.6-1.2,5.3-2c3.9-1.8,7.5-4.2,10.8-7c3.6-3.1,6.9-6.6,9.6-10.5
					c1.5-2,2.8-4.2,3.9-6.4c0.6-1.1,1.1-2.3,1.6-3.5c0.5-1.2,0.9-2.4,1.2-3.7c0.3-1.2,0.6-2.5,0.8-3.8c0.1-0.6,0.1-1.3,0.2-1.9
					s0.1-1.3,0-1.9s-0.1-1.3-0.1-1.9c0-0.3-0.1-0.6-0.1-1c0-0.2,0-0.3-0.1-0.5l-0.1-0.5c-0.1-0.6-0.3-1.3-0.5-1.9
					c-0.1-0.3-0.2-0.6-0.3-0.9c-0.1-0.2-0.1-0.3-0.2-0.5c-0.1-0.1-0.1-0.3-0.2-0.5l-0.2-0.5l-0.2-0.4l-0.1-0.2L70.4,22l-0.2-0.4
					l-0.2-0.4l-0.1-0.2l-0.1-0.2l-0.2-0.4l-0.3-0.4c-0.1-0.1-0.2-0.3-0.3-0.4s-0.2-0.3-0.3-0.4c-0.2-0.3-0.4-0.5-0.6-0.8
					c-0.4-0.5-0.8-1-1.2-1.5c-0.9-1-1.8-1.9-2.7-2.8c-1-0.9-2-1.7-3.1-2.4C59,10,56.8,8.6,54.4,7.5c-1.2-0.6-2.3-1.1-3.5-1.6
					c-0.3-0.1-0.6-0.2-0.9-0.4s-0.6-0.2-0.9-0.3C48.6,5,48,4.8,47.4,4.6c-2.3-0.8-4.7-1.6-7-2.1c-2.3-0.6-4.6-1-6.9-1.4
					c-4.3-0.6-8.6-0.6-12.9,0c-1,0.2-1.9,0.4-2.9,0.6s-1.8,0.5-2.7,0.8c-1.6,0.6-3.2,1.3-4.7,2.2C9.7,5.2,9.1,5.6,8.4,6
					S7.3,6.9,6.7,7.4c-1,0.8-1.9,1.8-2.7,2.7c-0.4,0.4-0.7,0.9-1,1.3s-0.6,0.8-0.9,1.2c-0.5,0.7-0.9,1.4-1.2,1.9s-0.5,1-0.7,1.2
					C0.1,16,0,16.2,0,16.2s0.1-0.1,0.2-0.4c0.1-0.3,0.4-0.7,0.7-1.3s0.7-1.2,1.2-2c0.6-0.9,1.2-1.7,1.8-2.5c0.8-1,1.7-1.9,2.7-2.8
					c1.1-1,2.3-2,3.7-2.8c1.5-0.9,3-1.7,4.7-2.3c1.8-0.7,3.7-1.2,5.6-1.5C22.6,0.2,24.7,0,26.8,0c2.3,0,4.5,0.1,6.7,0.4
					c2.4,0.3,4.7,0.7,7,1.3c2.4,0.6,4.7,1.3,7.1,2.1c2.4,0.8,4.8,1.8,7.1,2.9c2.4,1.1,4.6,2.5,6.8,4c1.1,0.8,2.1,1.6,3.1,2.5
					c1,0.9,1.9,1.8,2.8,2.9c0.4,0.5,0.9,1,1.3,1.6c0.2,0.3,0.4,0.5,0.6,0.8c0.1,0.1,0.2,0.3,0.3,0.4c0.1,0.1,0.2,0.3,0.3,0.4
					l0.3,0.4l0.2,0.4l0.1,0.2l0.1,0.2l0.2,0.5l0.2,0.5l0.1,0.2l0.1,0.2c0.1,0.2,0.1,0.3,0.2,0.5l0.2,0.5c0.1,0.2,0.1,0.3,0.2,0.5
					s0.1,0.3,0.2,0.5c0.1,0.3,0.2,0.6,0.3,1c0.2,0.6,0.4,1.3,0.5,2l0.1,0.5c0,0.2,0.1,0.3,0.1,0.5c0.1,0.3,0.1,0.7,0.1,1
					c0.1,0.7,0.1,1.3,0.1,2c0,0.7,0,1.3,0,2c-0.1,0.7-0.1,1.3-0.2,2c-0.2,1.3-0.5,2.6-0.8,3.9c-0.4,1.3-0.8,2.5-1.3,3.7
					c-0.5,1.2-1,2.4-1.6,3.5c-1.2,2.3-2.5,4.4-4,6.5c-2.8,3.9-6.1,7.5-9.9,10.6c-3.3,2.8-7,5.1-11,6.9c-3.3,1.5-6.9,2.6-10.6,3
					c-1.5,0.2-3.1,0.3-4.6,0.2c-1.3,0-2.6-0.2-3.9-0.4c-1-0.2-2.1-0.4-3.1-0.7c-0.9-0.3-1.6-0.5-2.2-0.8c-0.6-0.2-1-0.4-1.3-0.6
					C18.8,70.7,18.6,70.6,18.6,70.6z"/>
			</g>
		</g>
	</g>
	<g id="Gruppe_4" transform="translate(0.754 2.21)">
		<path id="Pfad_4" class="st1" d="M37.8,72.8c-3.9,0-7.9-0.6-11.6-1.8c-4.7-1.4-9.1-3.8-12.9-6.9c-15.4-12.7-17.6-35.4-5-50.8
			c3.1-3.8,6.9-6.9,11.3-9.1c8.4-4.3,18.2-5.3,27.2-2.6c4.7,1.4,9,3.7,12.7,6.8c3.8,3.1,7,7,9.3,11.3c2.3,4.2,3.8,8.9,4.4,13.6
			c0.6,4.7,0.3,9.5-0.9,14.1c-2.5,9.5-9.1,17.5-18,21.7c-4.3,2.1-9,3.3-13.8,3.6C39.5,72.7,38.7,72.8,37.8,72.8z M36.4,0.9
			c-1.1,0-2.3,0.1-3.4,0.2C13.6,2.8-0.7,20,1,39.4c0,0.1,0,0.1,0,0.2c0.9,9.3,5.5,17.9,12.7,23.9c3.7,3.1,8,5.3,12.6,6.8
			c4.5,1.4,9.2,2,13.9,1.6c4.7-0.3,9.2-1.5,13.4-3.5c4.3-2.1,8.1-5,11.1-8.7l0.3,0.3l-0.3-0.3c3-3.6,5.2-7.9,6.4-12.5
			c1.2-4.5,1.5-9.2,0.9-13.8c-0.6-4.7-2-9.2-4.3-13.3c-2.3-4.2-5.4-8-9.1-11c-3.7-3-7.9-5.3-12.4-6.6C43.2,1.4,39.8,0.9,36.4,0.9z"
			/>
	</g>
	<g id="Gruppe_5" transform="translate(1.568 0)">
		<path id="Pfad_5" class="st1" d="M37.5,74c-2,0-4.1-0.2-6.1-0.5c-4.6-0.8-9-2.6-13-5.1c-4.1-2.5-7.6-5.8-10.5-9.7
			c-3-4-5.2-8.5-6.5-13.4c-1.3-4.8-1.7-9.8-1.1-14.7c0.5-4.6,2-9.1,4.2-13.2c2.2-4,5.2-7.6,8.8-10.4c3.7-2.9,8-5,12.6-6.1
			c4.6-1.1,9.4-1.3,14.1-0.4c4.6,0.8,9,2.6,13,5.1c4.1,2.5,7.6,5.8,10.5,9.7c3,4,5.2,8.5,6.5,13.4c1.3,4.8,1.7,9.8,1.1,14.7
			c-0.5,4.6-2,9.1-4.2,13.2c-2.2,4-5.2,7.6-8.8,10.4c-3.7,2.9-8,5-12.6,6.1C42.9,73.7,40.2,74,37.5,74z M33.9,0.9
			c-2.6,0-5.2,0.3-7.8,0.9c-4.5,1.1-8.6,3.1-12.2,5.9c-3.5,2.8-6.4,6.2-8.6,10.1c-2.2,4-3.6,8.4-4.1,13C0.6,35.6,1,40.5,2.3,45.2
			c1.3,4.7,3.4,9.2,6.4,13.1c2.8,3.8,6.3,7,10.2,9.4c3.9,2.5,8.2,4.1,12.7,4.9c4.6,0.8,9.2,0.7,13.7-0.4c4.5-1.1,8.6-3.1,12.2-5.9
			c3.5-2.8,6.4-6.2,8.6-10.1c2.2-4,3.6-8.4,4.1-13c0.6-4.8,0.2-9.7-1.1-14.4c-1.3-4.7-3.4-9.2-6.4-13.1c-2.8-3.8-6.3-7-10.2-9.4
			c-3.9-2.5-8.2-4.1-12.7-4.9C37.8,1,35.8,0.9,33.9,0.9z"/>
	</g>
	<path id="Pfad_6" class="st1" d="M0,60.9c0.1,0.5,0.2,1,0.3,1.5c0.1,0.5,0.3,1,0.5,1.5s0.4,1,0.6,1.4s0.5,0.9,0.7,1.3
		s0.5,0.8,0.8,1.2s0.5,0.7,0.8,1s0.5,0.6,0.7,0.8c0.1,0.1,0.2,0.2,0.3,0.3c0,0,0.1,0.1,0.1,0.1S5,70.2,5,70.2
		c0.1,0.1,0.2,0.2,0.2,0.2c0.1,0.1,0.1,0.1,0.2,0.2l0.1,0.1c0,0,0,0-0.1-0.1c0,0-0.1-0.1-0.2-0.1c-0.1-0.1-0.1-0.1-0.2-0.2
		c0,0-0.1-0.1-0.1-0.1c0,0-0.1-0.1-0.1-0.1c-0.1-0.1-0.2-0.2-0.3-0.3c-0.2-0.2-0.5-0.5-0.7-0.8s-0.5-0.6-0.8-1s-0.5-0.8-0.8-1.2
		c-0.5-0.9-1-1.8-1.4-2.8c-0.2-0.5-0.4-1-0.5-1.5"/>
</g>
<g id="download" transform="translate(13.679 21.613)">
	<path id="Pfad_25" class="st2" d="M21,23.6c-1.1-1.1-2.3-2.1-3.7-2.9c-0.3-0.2-0.8-0.1-1,0.3s-0.1,0.8,0.3,1l0,0
		c1.2,0.9,2.4,1.9,3.4,3c1.1,1.1,2.3,2.2,3.5,3.3c0.3,0.3,0.8,0.3,1.2,0c2.6-2.4,5-5,7.2-7.8c0.4-0.5-0.3-1.3-0.8-0.8
		c-1.8,2-3.9,3.8-5.9,5.7c0.1-1.8-0.1-3.6-0.1-5.4c0.1-3,0.4-6,0.4-9c0-2.3,0-4.7,0.1-7c0.1-0.1,0.2-0.2,0.2-0.3
		c0-0.3,0-0.6-0.1-0.9c0-0.3-0.1-0.5-0.1-0.8C25.4,1,24,1.4,24.3,2.3l0,0.2c-0.1,2.8-0.2,5.5-0.3,8.3c-0.1,2.9-0.3,5.9-0.5,8.8
		c-0.2,2.2,0.2,4.4-0.1,6.6C22.5,25.4,21.7,24.4,21,23.6z"/>
	<path id="Pfad_26" class="st2" d="M43.5,19.8c0-0.5-0.5-0.9-1-0.9c-0.5,0-0.9,0.4-0.9,0.9c-0.2,2.8-0.2,5.7,0,8.5
		c-5.7,0.2-11.4,0.8-17.1,1.1c-3,0.2-5.9,0.2-8.9,0.1c-2.8-0.2-5.5-0.8-8.4-0.7c-0.1-2-0.2-4.1-0.3-6.1c0-0.5-0.1-1.1-0.2-1.6
		c0-0.3-0.1-0.6-0.1-0.9c0-0.1,0-0.2,0-0.3v-0.1c0.1-0.1,0.1-0.2,0-0.3c-0.2-0.5-0.7-0.3-0.9,0c-0.4,0.6-0.3,1.6-0.2,2.3
		c0.1,2.6,0.1,5.2,0.2,7.8c0,0.5,0.4,0.8,0.8,0.8c3-0.2,5.9,0.4,8.9,0.7c3,0.2,5.9,0.2,8.9,0c6.2-0.3,12.3-0.9,18.5-1.1
		c0.5,0,0.9-0.4,0.9-1c0-0.1,0-0.1,0-0.2C43,26,43.5,22.9,43.5,19.8z"/>
</g>
</svg>
