<?xml version="1.0" encoding="utf-8"?>
<!-- Generator: Adobe Illustrator 26.0.2, SVG Export Plug-In . SVG Version: 6.00 Build 0)  -->
<!DOCTYPE svg PUBLIC "-//W3C//DTD SVG 1.1//EN" "http://www.w3.org/Graphics/SVG/1.1/DTD/svg11.dtd" [
	<!ENTITY ns_extend "http://ns.adobe.com/Extensibility/1.0/">
	<!ENTITY ns_ai "http://ns.adobe.com/AdobeIllustrator/10.0/">
	<!ENTITY ns_graphs "http://ns.adobe.com/Graphs/1.0/">
	<!ENTITY ns_vars "http://ns.adobe.com/Variables/1.0/">
	<!ENTITY ns_imrep "http://ns.adobe.com/ImageReplacement/1.0/">
	<!ENTITY ns_sfw "http://ns.adobe.com/SaveForWeb/1.0/">
	<!ENTITY ns_custom "http://ns.adobe.com/GenericCustomNamespace/1.0/">
	<!ENTITY ns_adobe_xpath "http://ns.adobe.com/XPath/1.0/">
]>
<svg version="1.1" id="Ebene_1" xmlns:x="&ns_extend;" xmlns:i="&ns_ai;" xmlns:graph="&ns_graphs;"
	 xmlns="http://www.w3.org/2000/svg" xmlns:xlink="http://www.w3.org/1999/xlink" x="0px" y="0px" viewBox="0 0 68 67"
	 style="enable-background:new 0 0 68 67;" xml:space="preserve">
<style type="text/css">
	.Schlagschatten{fill:none;}
	.Schein_x0020_nach_x0020_außen_x0020__x002D__x0020_5_x0020_Pt_x002E_{fill:none;}
	.Blauer_x0020_Neonrahmen{fill:none;stroke:#8AACDA;stroke-width:7;stroke-linecap:round;stroke-linejoin:round;}
	.Lichter_x0020_Chrom{fill:url(#SVGID_1_);stroke:#FFFFFF;stroke-width:0.3629;stroke-miterlimit:1;}
	.Jive_GS{fill:#FFDD00;}
	.Alyssa_GS{fill:#A6D0E4;}
	.st0{opacity:0.75;fill:#363636;enable-background:new    ;}
	.st1{fill:#FFFFFF;}
</style>
<metadata>
	<sfw  xmlns="&ns_sfw;">
		<slices></slices>
		<sliceSourceBounds  bottomLeftOrigin="true" height="67" width="68" x="513" y="-640"></sliceSourceBounds>
	</sfw>
</metadata>
<linearGradient id="SVGID_1_" gradientUnits="userSpaceOnUse" x1="-513" y1="-573" x2="-513" y2="-574">
	<stop  offset="0" style="stop-color:#656565"/>
	<stop  offset="0.618" style="stop-color:#1B1B1B"/>
	<stop  offset="0.6292" style="stop-color:#545454"/>
	<stop  offset="0.9831" style="stop-color:#3E3E3E"/>
</linearGradient>
<ellipse id="Ellipse_37" class="st0" cx="34" cy="33.5" rx="34" ry="33.5"/>
<g id="plus-scribble" transform="translate(14.161 15.565)">
	<g id="Gruppe_23" transform="translate(21.004 0)">
		<path id="Pfad_23" class="st1" d="M0,0.4c0,9,0.9,18.1,0.6,27.1C0.5,30,0.3,32.5,0,35c-0.1,0.5,0.7,0.5,0.8,0
			C1.9,26,1.3,17,0.9,7.9C0.8,5.4,0.8,2.9,0.8,0.4C0.7,0.1,0.6,0,0.4,0C0.2,0,0,0.2,0,0.4L0,0.4z"/>
	</g>
	<g id="Gruppe_24" transform="translate(0 15.148)">
		<path id="Pfad_24" class="st1" d="M0.3,0.7C5.5,1.5,10.9,2,16.2,2.1c5.2,0.1,10.4,0.1,15.5,0.1c3,0,6,0.1,9.1,0.2
			c0.5,0,0.5-0.7,0-0.8C35.5,1.4,30.2,1.4,25,1.4C19.8,1.4,14.7,1.4,9.5,1c-3-0.2-6.1-0.5-9.1-1C0-0.1-0.2,0.7,0.3,0.7L0.3,0.7z"/>
	</g>
</g>
<g id="circle-white" transform="translate(6.208 4.447)">
	<g id="Gruppe_3" transform="translate(1.38 1.771)">
		<g id="Gruppe_2">
			<g id="Gruppe_1">
				<path id="Pfad_3" class="st1" d="M14.2,53.9l0.3,0.2c0.2,0.1,0.6,0.2,1,0.4c1.3,0.5,2.6,0.8,4,1.1c1,0.2,2,0.2,2.9,0.3
					c1.2,0,2.3,0,3.5-0.2c1.3-0.2,2.6-0.5,3.9-0.8c1.4-0.4,2.8-0.9,4.1-1.6c3-1.4,5.7-3.2,8.2-5.3c2.8-2.4,5.3-5.1,7.4-8
					c1.1-1.6,2.1-3.2,3-4.9c0.4-0.9,0.8-1.8,1.2-2.7c0.4-0.9,0.7-1.8,0.9-2.8c0.3-1,0.5-1.9,0.6-2.9c0.1-0.5,0.1-1,0.1-1.5
					s0-1,0-1.5s0-1-0.1-1.5c0-0.2-0.1-0.5-0.1-0.7c0-0.1,0-0.2-0.1-0.4l-0.1-0.4c-0.1-0.5-0.2-1-0.4-1.4c-0.1-0.2-0.1-0.5-0.2-0.7
					c0-0.1-0.1-0.2-0.1-0.3s-0.1-0.2-0.1-0.3l-0.1-0.3L54,17.1L53.9,17l-0.1-0.2l-0.2-0.3l-0.2-0.3L53.4,16l-0.1-0.2l-0.2-0.3
					l-0.2-0.3c-0.1-0.1-0.1-0.2-0.2-0.3s-0.1-0.2-0.2-0.3c-0.1-0.2-0.3-0.4-0.4-0.6c-0.3-0.4-0.6-0.8-0.9-1.2
					c-0.7-0.8-1.4-1.5-2.1-2.1c-0.7-0.7-1.5-1.3-2.3-1.9c-1.6-1.1-3.3-2.2-5.1-3c-0.9-0.4-1.8-0.8-2.7-1.2c-0.2-0.1-0.4-0.2-0.7-0.3
					S37.8,4.1,37.6,4c-0.5-0.2-0.9-0.3-1.3-0.5c-1.8-0.6-3.6-1.2-5.4-1.6c-1.7-0.4-3.5-0.8-5.3-1c-3.3-0.5-6.6-0.5-9.8,0
					c-0.8,0.1-1.5,0.3-2.2,0.5s-1.4,0.4-2,0.6c-1.2,0.4-2.4,1-3.6,1.7c-0.5,0.3-1,0.7-1.5,1s-0.9,0.7-1.3,1C4.4,6.3,3.7,7,3.1,7.7
					c-0.3,0.3-0.5,0.7-0.8,1S1.8,9.3,1.6,9.6c-0.4,0.6-0.7,1.1-0.9,1.5s-0.4,0.7-0.5,1S0,12.4,0,12.4S0,12.2,0.2,12s0.3-0.5,0.5-1
					s0.5-0.9,0.9-1.5C2,8.9,2.5,8.3,3,7.6c0.6-0.8,1.3-1.5,2-2.1C5.9,4.7,6.8,4,7.8,3.4c1.1-0.7,2.3-1.3,3.6-1.8
					c1.4-0.5,2.8-0.9,4.3-1.2C17.2,0.2,18.9,0,20.5,0c1.7,0,3.4,0.1,5.2,0.3c1.8,0.2,3.6,0.6,5.4,1c1.8,0.4,3.6,1,5.4,1.6
					c1.9,0.6,3.7,1.4,5.4,2.2c1.8,0.9,3.6,1.9,5.2,3c0.8,0.6,1.6,1.2,2.4,1.9c0.8,0.7,1.5,1.4,2.2,2.2c0.3,0.4,0.7,0.8,1,1.2
					c0.2,0.2,0.3,0.4,0.4,0.6c0.1,0.1,0.1,0.2,0.2,0.3s0.1,0.2,0.2,0.3l0.2,0.3l0.2,0.3l0.1,0.2l0.1,0.2l0.2,0.3l0.2,0.3l0.1,0.2
					l0.1,0.2c0.1,0.1,0.1,0.2,0.2,0.4l0.1,0.4c0.1,0.1,0.1,0.2,0.1,0.4s0.1,0.2,0.1,0.4c0.1,0.2,0.2,0.5,0.2,0.7
					c0.1,0.5,0.3,1,0.4,1.5l0.1,0.4c0,0.1,0,0.3,0.1,0.4c0,0.3,0.1,0.5,0.1,0.8c0.1,0.5,0.1,1,0.1,1.5c0,0.5,0,1,0,1.5
					c0,0.5-0.1,1-0.2,1.5c-0.1,1-0.4,2-0.6,3c-0.3,1-0.6,1.9-1,2.8c-0.4,0.9-0.8,1.8-1.2,2.7c-0.9,1.7-1.9,3.4-3,5
					c-2.2,3-4.7,5.7-7.5,8.1c-2.6,2.1-5.4,3.9-8.4,5.3c-2.6,1.2-5.3,2-8.1,2.3c-1.2,0.1-2.3,0.2-3.5,0.2c-1,0-2-0.1-3-0.3
					c-0.8-0.1-1.6-0.3-2.3-0.6c-0.7-0.2-1.2-0.4-1.7-0.6s-0.8-0.3-1-0.4C14.3,54,14.2,53.9,14.2,53.9z"/>
			</g>
		</g>
	</g>
	<g id="Gruppe_4" transform="translate(0.618 1.812)">
		<path id="Pfad_4" class="st1" d="M28.9,55.6c-3,0-6-0.5-8.9-1.3c-3.6-1.1-7-2.9-9.9-5.3c-11.8-9.7-13.5-27-3.8-38.8
			c2.4-2.9,5.3-5.3,8.6-7c6.4-3.3,13.9-4,20.8-2c3.6,1.1,6.9,2.8,9.7,5.2c2.9,2.4,5.3,5.3,7.1,8.6c1.7,3.2,2.9,6.8,3.3,10.4
			c0.5,3.6,0.2,7.3-0.7,10.8c-1.9,7.3-7,13.3-13.8,16.6c-3.3,1.6-6.9,2.5-10.5,2.7C30.2,55.5,29.5,55.6,28.9,55.6z M27.8,0.7
			c-0.9,0-1.7,0-2.6,0.1C18,1.5,11.5,5,6.9,10.5C-2.6,21.9-1,38.8,10.3,48.3c0.1,0.1,0.1,0.1,0.2,0.2c2.8,2.3,6.1,4.1,9.6,5.2
			c3.4,1.1,7.1,1.5,10.7,1.3c3.6-0.2,7.1-1.1,10.3-2.7c3.3-1.6,6.2-3.8,8.5-6.6l0.3,0.2l-0.3-0.2c2.3-2.8,4-6,4.9-9.6
			c0.9-3.4,1.2-7,0.7-10.5c-0.4-3.6-1.6-7-3.3-10.2C50.2,12,47.9,9.2,45,6.8c-2.8-2.3-6-4-9.5-5C33,1,30.4,0.7,27.8,0.7z"/>
	</g>
	<g id="Gruppe_5" transform="translate(1.285 0)">
		<path id="Pfad_5" class="st1" d="M28.6,56.6c-1.6,0-3.1-0.1-4.7-0.4c-3.5-0.6-6.9-2-9.9-3.9c-3.1-1.9-5.8-4.5-8-7.4
			c-2.3-3.1-4-6.5-5-10.2c-1-3.6-1.3-7.5-0.9-11.2c0.4-3.6,1.5-7,3.2-10.1c1.7-3.1,4-5.8,6.7-8c2.8-2.2,6.1-3.8,9.6-4.7
			c3.5-0.9,7.2-1,10.8-0.3c3.5,0.6,6.9,2,9.9,3.9c3.1,1.9,5.8,4.5,8,7.4c2.3,3.1,4,6.5,5,10.2c1,3.6,1.3,7.5,0.9,11.2
			c-0.4,3.6-1.5,7-3.2,10.1c-1.7,3.1-4,5.8-6.7,7.9c-2.8,2.2-6.1,3.8-9.6,4.7C32.7,56.4,30.7,56.6,28.6,56.6z M25.8,0.6
			c-2,0-4,0.2-6,0.7c-3.4,0.8-6.6,2.4-9.3,4.5C7.9,8,5.6,10.6,4,13.6c-1.7,3.1-2.7,6.4-3.1,9.9c-0.4,3.7-0.1,7.4,0.8,11
			c1,3.6,2.6,7,4.9,10c2.1,2.9,4.8,5.3,7.8,7.2c2.9,1.9,6.2,3.2,9.7,3.8c3.5,0.6,7.1,0.5,10.5-0.3c3.4-0.8,6.6-2.4,9.3-4.5
			c2.7-2.1,4.9-4.8,6.5-7.7c1.7-3.1,2.7-6.4,3.1-9.9c0.4-3.7,0.1-7.4-0.9-11c-1-3.6-2.6-7-4.9-10c-2.1-2.9-4.8-5.3-7.8-7.2
			c-2.9-1.9-6.2-3.2-9.7-3.8C28.9,0.8,27.3,0.6,25.8,0.6L25.8,0.6z"/>
	</g>
	<path id="Pfad_6" class="st1" d="M0,45.8c0.1,0.4,0.2,0.8,0.3,1.2c0.1,0.4,0.3,0.8,0.4,1.2S1,49,1.2,49.4s0.4,0.7,0.6,1.1
		s0.4,0.7,0.6,1s0.4,0.6,0.6,0.8s0.4,0.5,0.6,0.7c0.1,0.1,0.2,0.2,0.3,0.3c0,0,0.1,0.1,0.1,0.1c0,0,0.1,0.1,0.1,0.1
		c0.1,0.1,0.1,0.1,0.2,0.2c0.1,0.1,0.1,0.1,0.1,0.1l0.1,0.1c0,0,0,0-0.1-0.1c0,0-0.1-0.1-0.1-0.1s-0.1-0.1-0.2-0.2
		c0,0-0.1-0.1-0.1-0.1c0,0-0.1-0.1-0.1-0.1c-0.1-0.1-0.2-0.2-0.3-0.3c-0.2-0.2-0.4-0.4-0.6-0.7s-0.4-0.5-0.7-0.8s-0.4-0.6-0.6-1
		c-0.4-0.7-0.8-1.5-1.1-2.3c-0.2-0.4-0.3-0.8-0.4-1.2"/>
</g>
</svg>
