<?xml version="1.0" encoding="utf-8"?>
<!-- Generator: Adobe Illustrator 26.0.2, SVG Export Plug-In . SVG Version: 6.00 Build 0)  -->
<!DOCTYPE svg PUBLIC "-//W3C//DTD SVG 1.1//EN" "http://www.w3.org/Graphics/SVG/1.1/DTD/svg11.dtd" [
	<!ENTITY ns_extend "http://ns.adobe.com/Extensibility/1.0/">
	<!ENTITY ns_ai "http://ns.adobe.com/AdobeIllustrator/10.0/">
	<!ENTITY ns_graphs "http://ns.adobe.com/Graphs/1.0/">
	<!ENTITY ns_vars "http://ns.adobe.com/Variables/1.0/">
	<!ENTITY ns_imrep "http://ns.adobe.com/ImageReplacement/1.0/">
	<!ENTITY ns_sfw "http://ns.adobe.com/SaveForWeb/1.0/">
	<!ENTITY ns_custom "http://ns.adobe.com/GenericCustomNamespace/1.0/">
	<!ENTITY ns_adobe_xpath "http://ns.adobe.com/XPath/1.0/">
]>
<svg version="1.1" id="Ebene_1" xmlns:x="&ns_extend;" xmlns:i="&ns_ai;" xmlns:graph="&ns_graphs;"
	 xmlns="http://www.w3.org/2000/svg" xmlns:xlink="http://www.w3.org/1999/xlink" x="0px" y="0px" viewBox="0 0 89 57"
	 style="enable-background:new 0 0 89 57;" xml:space="preserve">
<style type="text/css">
	.Schlagschatten{fill:none;}
	.Schein_x0020_nach_x0020_außen_x0020__x002D__x0020_5_x0020_Pt_x002E_{fill:none;}
	.Blauer_x0020_Neonrahmen{fill:none;stroke:#8AACDA;stroke-width:7;stroke-linecap:round;stroke-linejoin:round;}
	.Lichter_x0020_Chrom{fill:url(#SVGID_1_);stroke:#FFFFFF;stroke-width:0.3629;stroke-miterlimit:1;}
	.Jive_GS{fill:#FFDD00;}
	.Alyssa_GS{fill:#A6D0E4;}
	.st0{fill:#FFFFFF;}
</style>
<metadata>
	<sfw  xmlns="&ns_sfw;">
		<slices></slices>
		<sliceSourceBounds  bottomLeftOrigin="true" height="56.4" width="89" x="593.1" y="-539.6"></sliceSourceBounds>
	</sfw>
</metadata>
<linearGradient id="SVGID_1_" gradientUnits="userSpaceOnUse" x1="-593" y1="-483" x2="-593" y2="-484">
	<stop  offset="0" style="stop-color:#656565"/>
	<stop  offset="0.618" style="stop-color:#1B1B1B"/>
	<stop  offset="0.6292" style="stop-color:#545454"/>
	<stop  offset="0.9831" style="stop-color:#3E3E3E"/>
</linearGradient>
<g id="circle-white" transform="translate(34)">
	<g id="Gruppe_3" transform="translate(2.59 3.326)">
		<g id="Gruppe_2">
			<g id="Gruppe_1">
				<path id="Pfad_3" class="st0" d="M13.4,51.4l0.3,0.1c0.2,0.1,0.5,0.2,1,0.4c1.2,0.5,2.5,0.8,3.8,1c0.9,0.1,1.8,0.2,2.8,0.2
					c1.1,0,2.2,0,3.2-0.2c1.2-0.2,2.4-0.4,3.6-0.8c1.3-0.4,2.6-0.9,3.8-1.5c2.8-1.3,5.4-3,7.7-5c2.6-2.2,4.9-4.8,6.9-7.6
					c1-1.5,2-3.1,2.8-4.7c0.4-0.8,0.8-1.7,1.1-2.5c0.3-0.9,0.6-1.7,0.9-2.6c0.2-0.9,0.4-1.8,0.6-2.7c0.1-0.5,0.1-0.9,0.1-1.4
					s0-0.9,0-1.4s0-0.9-0.1-1.4c0-0.2,0-0.5-0.1-0.7c0-0.1,0-0.2-0.1-0.3l-0.1-0.3c-0.1-0.5-0.2-0.9-0.3-1.4
					c-0.1-0.2-0.1-0.4-0.2-0.7c0-0.1-0.1-0.2-0.1-0.3s-0.1-0.2-0.1-0.3l-0.1-0.3l-0.1-0.3l-0.1-0.2l-0.1-0.2l-0.2-0.3l-0.2-0.3
					l-0.1-0.2L50,15.2l-0.2-0.3l-0.2-0.3c-0.1-0.1-0.1-0.2-0.2-0.3s-0.1-0.2-0.2-0.3c-0.1-0.2-0.3-0.4-0.4-0.6
					c-0.3-0.4-0.6-0.7-0.9-1.1c-0.6-0.7-1.3-1.4-2-2c-0.7-0.6-1.4-1.2-2.2-1.8c-1.5-1.1-3.1-2-4.8-2.9c-0.8-0.4-1.6-0.8-2.5-1.1
					c-0.2-0.1-0.4-0.2-0.6-0.3S35.5,4,35.3,4c-0.4-0.2-0.8-0.3-1.3-0.5c-1.7-0.6-3.4-1.1-5-1.6c-1.6-0.4-3.3-0.7-4.9-1
					c-3.1-0.5-6.2-0.4-9.2,0c-0.7,0.1-1.4,0.3-2,0.4S11.5,1.8,10.9,2C9.7,2.4,8.6,3,7.6,3.6c-0.5,0.3-1,0.6-1.4,0.9s-0.8,0.7-1.2,1
					C4.3,6.2,3.6,6.8,3,7.5C2.7,7.8,2.5,8.2,2.3,8.5S1.9,9,1.7,9.3c-0.4,0.5-0.7,1-0.9,1.4s-0.4,0.7-0.5,0.9s-0.2,0.3-0.2,0.3
					s0-0.1,0.2-0.3s0.3-0.5,0.5-0.9s0.5-0.9,0.8-1.4C2,8.6,2.4,8,2.9,7.4c0.6-0.7,1.2-1.4,1.9-2c0.8-0.7,1.7-1.4,2.6-2
					c1.1-0.7,2.2-1.2,3.3-1.7c1.3-0.5,2.6-0.9,4-1.1c1.5-0.3,3-0.4,4.5-0.4c1.6,0,3.2,0.1,4.8,0.3c1.7,0.2,3.4,0.5,5,0.9
					c1.7,0.4,3.4,0.9,5.1,1.5c1.7,0.6,3.4,1.3,5.1,2.1C41,5.9,42.6,6.9,44.1,8c0.8,0.6,1.5,1.2,2.2,1.8c0.7,0.6,1.4,1.3,2,2.1
					c0.3,0.4,0.6,0.7,0.9,1.1c0.1,0.2,0.3,0.4,0.4,0.6c0.1,0.1,0.1,0.2,0.2,0.3s0.1,0.2,0.2,0.3l0.2,0.3l0.2,0.3l0.1,0.2l0.1,0.2
					l0.2,0.3l0.2,0.3L51,16l0.1,0.2c0,0.1,0.1,0.2,0.1,0.3l0.1,0.3c0,0.1,0.1,0.2,0.1,0.3s0.1,0.2,0.1,0.3c0.1,0.2,0.2,0.5,0.2,0.7
					c0.1,0.5,0.2,0.9,0.3,1.4l0.1,0.4c0,0.1,0,0.2,0.1,0.4c0,0.2,0.1,0.5,0.1,0.7c0,0.5,0.1,1,0.1,1.5c0,0.5,0,1,0,1.5
					c0,0.5-0.1,1-0.1,1.4c-0.1,1-0.3,1.9-0.6,2.8c-0.3,0.9-0.6,1.8-0.9,2.7c-0.3,0.9-0.7,1.7-1.2,2.6c-0.8,1.6-1.8,3.2-2.8,4.7
					c-2,2.8-4.4,5.4-7,7.7c-2.4,2-5,3.7-7.8,5c-2.4,1.1-4.9,1.9-7.5,2.2c-1.1,0.1-2.2,0.2-3.3,0.1c-0.9,0-1.9-0.1-2.8-0.3
					c-0.7-0.1-1.5-0.3-2.2-0.5c-0.6-0.2-1.1-0.4-1.6-0.6s-0.7-0.3-0.9-0.4C13.5,51.4,13.4,51.4,13.4,51.4z"/>
			</g>
		</g>
	</g>
	<g id="Gruppe_4" transform="translate(1.161 3.402)">
		<path id="Pfad_4" class="st0" d="M27.2,52.5c-2.8,0-5.6-0.4-8.3-1.3c-3.4-1-6.5-2.7-9.2-5C-1.5,37.1-3.1,20.7,6.1,9.7
			S31.6-3,42.7,6.1c2.7,2.3,5,5,6.6,8.1c1.6,3,2.7,6.4,3.1,9.8c0.4,3.4,0.2,6.9-0.7,10.2c-1.8,6.8-6.5,12.6-12.9,15.6
			c-3.1,1.5-6.4,2.4-9.9,2.6C28.4,52.5,27.8,52.5,27.2,52.5z M26.2,0.8c-0.8,0-1.6,0-2.5,0.1C9.8,2.3-0.5,14.7,0.9,28.6
			c0.6,6.7,3.9,12.9,9.1,17.2c2.7,2.2,5.7,3.8,9,4.9c3.2,1,6.6,1.4,10,1.2c3.3-0.2,6.6-1.1,9.6-2.5c3.1-1.5,5.8-3.6,8-6.2l0.2,0.2
			l-0.2-0.2c2.2-2.6,3.7-5.7,4.6-9c0.9-3.2,1.1-6.6,0.7-9.9c-0.4-3.4-1.5-6.6-3.1-9.6c-1.6-3-3.8-5.7-6.5-7.9
			c-2.6-2.2-5.6-3.8-8.9-4.8C31.1,1.2,28.6,0.8,26.2,0.8L26.2,0.8z"/>
	</g>
	<g id="Gruppe_5" transform="translate(2.413 0)">
		<path id="Pfad_5" class="st0" d="M26.1,54.5c-1.4,0-2.8-0.1-4.2-0.4c-3.2-0.6-6.3-1.9-9-3.7c-2.8-1.9-5.3-4.3-7.2-7.1
			c-4.2-6-6.1-13.3-5.3-20.6C0.7,19.3,1.7,16,3.2,13c1.5-2.9,3.6-5.5,6.1-7.6c5.1-4.3,11.9-6,18.5-4.8c3.2,0.6,6.3,1.9,9,3.7
			c2.8,1.9,5.3,4.3,7.2,7.1c4.2,6,6.1,13.3,5.3,20.6c-0.4,3.4-1.3,6.7-2.9,9.7c-1.5,2.9-3.6,5.5-6.1,7.6
			C36.4,52.6,31.3,54.5,26.1,54.5L26.1,54.5z M23.6,0.8c-5.1,0-10,1.8-13.9,5c-2.5,2.1-4.5,4.6-5.9,7.4c-1.5,3-2.5,6.2-2.8,9.5
			C0.2,29.9,2,37,6.1,42.9c1.9,2.7,4.3,5.1,7.1,6.9c2.7,1.8,5.6,3,8.8,3.6c6.4,1.2,13-0.5,18-4.6c2.5-2.1,4.5-4.6,5.9-7.4
			c1.5-3,2.5-6.2,2.8-9.5c0.8-7.1-1.1-14.3-5.2-20.1c-1.9-2.7-4.3-5.1-7.1-6.9c-2.7-1.8-5.6-3-8.8-3.6C26.3,0.9,25,0.8,23.6,0.8z"/>
	</g>
	<path id="Pfad_6" class="st0" d="M0.1,34.2c0.1,0.8,0.3,1.5,0.5,2.3c0.2,0.8,0.5,1.5,0.8,2.3s0.6,1.5,1,2.2s0.7,1.4,1.1,2.1
		s0.8,1.3,1.2,1.8s0.8,1.1,1.2,1.6s0.8,0.9,1.1,1.2c0.2,0.2,0.3,0.3,0.5,0.5c0.1,0.1,0.1,0.1,0.2,0.2s0.1,0.1,0.2,0.2
		c0.1,0.1,0.2,0.2,0.3,0.3c0.1,0.1,0.2,0.2,0.3,0.2l0.2,0.2c0,0-0.1-0.1-0.2-0.2C8.4,49.1,8.3,49,8.2,49S8,48.8,7.8,48.7
		c-0.1-0.1-0.1-0.1-0.2-0.2s-0.1-0.1-0.2-0.2c-0.2-0.1-0.3-0.3-0.5-0.5c-0.3-0.3-0.7-0.8-1.1-1.2S5,45.6,4.6,45s-0.8-1.2-1.2-1.8
		c-0.8-1.4-1.5-2.8-2.1-4.3c-0.3-0.8-0.5-1.5-0.8-2.3"/>
</g>
<g id="arrow-stil" transform="translate(-0.794 15.949)">
	<path id="Pfad_12" class="st0" d="M71.4,13.3c-12.2-1.2-24.4-0.5-36.6-0.4c-11,0.1-22.1-2.3-33.1-1C0.4,12,0.8,14,2,13.9
		c11.4-1.3,23,1.2,34.5,1c11.6-0.1,23.2-0.7,34.7,0.4c0.6,0.1,1-0.3,1.1-0.9C72.4,13.8,72,13.3,71.4,13.3L71.4,13.3z"/>
	<path id="Pfad_13" class="st0" d="M55.7,2.9c6.5,4.2,12.5,9.1,19.2,13c0.1-0.6,0.3-1.2,0.4-1.8c-8.7,1.9-16.6,7-25.5,7.7
		c-1.3,0.1-0.9,2.1,0.3,2c9-0.7,16.8-5.8,25.5-7.7c0.5-0.1,0.9-0.6,0.8-1.2c0-0.3-0.2-0.5-0.4-0.6c-6.7-3.9-12.7-8.8-19.2-13
		C55.7,0.6,54.6,2.2,55.7,2.9z"/>
</g>
</svg>
