<?xml version="1.0" encoding="UTF-8"?>
<!-- Generator: Adobe Illustrator 26.0.2, SVG Export Plug-In . SVG Version: 6.00 Build 0)  -->
<svg xmlns:x="&ns_extend;" xmlns:i="&ns_ai;" xmlns:graph="&ns_graphs;" xmlns="http://www.w3.org/2000/svg" xmlns:xlink="http://www.w3.org/1999/xlink" version="1.1" id="Ebene_1" x="0px" y="0px" viewBox="0 0 89 57" style="enable-background:new 0 0 89 57;" xml:space="preserve">
<style type="text/css">
	.st0{fill:#D8232A;}
	.st1{fill:#FFFFFF;}
</style>
<metadata>
	
</metadata>
<linearGradient id="SVGID_1_" gradientUnits="userSpaceOnUse" x1="-501" y1="-578" x2="-501" y2="-579">
	<stop offset="0" style="stop-color:#656565"></stop>
	<stop offset="0.618" style="stop-color:#1B1B1B"></stop>
	<stop offset="0.6292" style="stop-color:#545454"></stop>
	<stop offset="0.9831" style="stop-color:#3E3E3E"></stop>
</linearGradient>
<g id="circle-white" transform="translate(34)">
	<g id="Gruppe_3" transform="translate(2.59 3.326)">
		<g id="Gruppe_2">
			<g id="Gruppe_1">
				<path id="Pfad_3" class="st0" d="M13.3,51.6l0.3,0.1c0.2,0.1,0.5,0.2,1,0.4c1.2,0.5,2.5,0.8,3.8,1c0.9,0.1,1.8,0.2,2.8,0.2      c1.1,0,2.2,0,3.2-0.2c1.2-0.2,2.4-0.4,3.6-0.8c1.3-0.4,2.6-0.9,3.8-1.5c2.8-1.3,5.4-3,7.7-5c2.6-2.2,4.9-4.8,6.9-7.6      c1-1.5,2-3.1,2.8-4.7c0.4-0.8,0.8-1.7,1.1-2.5c0.3-0.9,0.6-1.7,0.9-2.6c0.2-0.9,0.4-1.8,0.6-2.7c0.1-0.5,0.1-0.9,0.1-1.4      s0-0.9,0-1.4s0-0.9-0.1-1.4c0-0.2,0-0.5-0.1-0.7c0-0.1,0-0.2-0.1-0.3l-0.1-0.3c-0.1-0.5-0.2-0.9-0.3-1.4      c-0.1-0.2-0.1-0.4-0.2-0.7c0-0.1-0.1-0.2-0.1-0.3s-0.1-0.2-0.1-0.3L50.7,17l-0.1-0.3l-0.1-0.2l-0.1-0.2l-0.2-0.3L50,15.8      L50,15.6l-0.1-0.2l-0.2-0.3l-0.2-0.3c-0.1-0.1-0.1-0.2-0.2-0.3s-0.1-0.2-0.2-0.3c-0.1-0.2-0.3-0.4-0.4-0.6      c-0.3-0.4-0.6-0.7-0.9-1.1c-0.6-0.7-1.3-1.4-2-2c-0.7-0.6-1.4-1.2-2.2-1.8c-1.5-1.1-3.1-2-4.8-2.9c-0.8-0.4-1.6-0.8-2.5-1.1      c-0.2-0.1-0.4-0.2-0.6-0.3s-0.4-0.2-0.6-0.3c-0.4-0.2-0.8-0.3-1.3-0.5c-1.7-0.6-3.4-1.1-5-1.6c-1.6-0.4-3.3-0.7-4.9-1      c-3.1-0.5-6.2-0.4-9.2,0c-0.7,0.1-1.4,0.3-2,0.4s-1.3,0.4-1.9,0.6c-1.2,0.4-2.3,1-3.3,1.6C7,4.2,6.5,4.5,6.1,4.8s-0.8,0.7-1.2,1      c-0.7,0.6-1.3,1.3-1.9,2C2.7,8.1,2.4,8.4,2.2,8.7S1.8,9.3,1.6,9.6c-0.4,0.5-0.7,1-0.9,1.4s-0.4,0.7-0.5,0.9S0,12.2,0,12.2      s0-0.1,0.2-0.3s0.3-0.5,0.5-0.9s0.5-0.9,0.8-1.4c0.4-0.6,0.8-1.2,1.3-1.8C3.4,7,4,6.3,4.7,5.7c0.8-0.7,1.7-1.4,2.6-2      C8.4,3,9.5,2.4,10.7,2c1.3-0.5,2.6-0.9,4-1.1c1.5-0.3,3-0.4,4.5-0.4c1.6,0,3.2,0.1,4.8,0.3c1.7,0.2,3.4,0.5,5,0.9      c1.7,0.4,3.4,0.9,5.1,1.5c1.7,0.6,3.4,1.3,5.1,2.1c1.7,0.8,3.3,1.8,4.9,2.9c0.8,0.6,1.5,1.2,2.2,1.8c0.7,0.6,1.4,1.3,2,2.1      c0.3,0.4,0.6,0.7,0.9,1.1c0.1,0.2,0.3,0.4,0.4,0.6c0.1,0.1,0.1,0.2,0.2,0.3s0.1,0.2,0.2,0.3l0.2,0.3l0.2,0.3l0.1,0.2l0.1,0.2      l0.2,0.3l0.2,0.3l0.1,0.2l0.1,0.2c0,0.1,0.1,0.2,0.1,0.3l0.1,0.3c0,0.1,0.1,0.2,0.1,0.3s0.1,0.2,0.1,0.3      c0.1,0.2,0.2,0.5,0.2,0.7c0.1,0.5,0.2,0.9,0.3,1.4l0.1,0.4c0,0.1,0,0.2,0.1,0.4c0,0.2,0.1,0.5,0.1,0.7c0,0.5,0.1,1,0.1,1.5      c0,0.5,0,1,0,1.5c0,0.5-0.1,1-0.1,1.4c-0.1,1-0.3,1.9-0.6,2.8c-0.3,0.9-0.6,1.8-0.9,2.7c-0.3,0.9-0.7,1.7-1.2,2.6      c-0.8,1.6-1.8,3.2-2.8,4.7c-2,2.8-4.4,5.4-7,7.7c-2.4,2-5,3.7-7.8,5c-2.4,1.1-4.9,1.9-7.5,2.2c-1.1,0.1-2.2,0.2-3.3,0.1      c-0.9,0-1.9-0.1-2.8-0.3c-0.7-0.1-1.5-0.3-2.2-0.5c-0.6-0.2-1.1-0.4-1.6-0.6s-0.7-0.3-0.9-0.4C13.5,51.7,13.3,51.6,13.3,51.6z"></path>
			</g>
		</g>
	</g>
	<g id="Gruppe_4" transform="translate(1.161 3.402)">
		<path id="Pfad_4" class="st0" d="M27.1,52.8c-2.8,0-5.6-0.4-8.3-1.3c-3.4-1-6.5-2.7-9.2-5C-1.6,37.4-3.2,21,6,9.9    S31.5-2.7,42.6,6.4c2.7,2.3,5,5,6.6,8.1c1.6,3,2.7,6.4,3.1,9.8c0.4,3.4,0.2,6.9-0.7,10.2c-1.8,6.8-6.5,12.6-12.9,15.6    c-3.1,1.5-6.4,2.4-9.9,2.6C28.3,52.8,27.7,52.8,27.1,52.8z M26.1,1.1c-0.8,0-1.6,0-2.5,0.1C9.7,2.5-0.6,14.9,0.8,28.9    c0.6,6.7,3.9,12.9,9.1,17.2c2.7,2.2,5.7,3.8,9,4.9c3.2,1,6.6,1.4,10,1.2c3.3-0.2,6.6-1.1,9.6-2.5c3.1-1.5,5.8-3.6,8-6.2l0.2,0.2    l-0.2-0.2c2.2-2.6,3.7-5.7,4.6-9c0.9-3.2,1.1-6.6,0.7-9.9c-0.4-3.4-1.5-6.6-3.1-9.6c-1.6-3-3.8-5.7-6.5-7.9    c-2.6-2.2-5.6-3.8-8.9-4.8C31,1.5,28.5,1.1,26.1,1.1L26.1,1.1z"></path>
	</g>
	<g id="Gruppe_5" transform="translate(2.413 0)">
		<path id="Pfad_5" class="st0" d="M26,54.8c-1.4,0-2.8-0.1-4.2-0.4c-3.2-0.6-6.3-1.9-9-3.7c-2.8-1.9-5.3-4.3-7.2-7.1    c-4.2-6-6.1-13.3-5.3-20.6c0.4-3.4,1.3-6.7,2.9-9.7c1.5-2.9,3.6-5.5,6.1-7.6c5.1-4.3,11.9-6,18.5-4.8c3.2,0.6,6.3,1.9,9,3.7    c2.8,1.9,5.3,4.3,7.2,7.1c4.2,6,6.1,13.3,5.3,20.6c-0.4,3.4-1.3,6.7-2.9,9.7c-1.5,2.9-3.6,5.5-6.1,7.6    C36.3,52.9,31.2,54.8,26,54.8L26,54.8z M23.5,1.1c-5.1,0-10,1.8-13.9,5c-2.5,2.1-4.5,4.6-5.9,7.4c-1.5,3-2.5,6.2-2.8,9.5    C0.1,30.2,1.9,37.3,6,43.2c1.9,2.7,4.3,5.1,7.1,6.9c2.7,1.8,5.6,3,8.8,3.6c6.4,1.2,13-0.5,18-4.6c2.5-2.1,4.5-4.6,5.9-7.4    c1.5-3,2.5-6.2,2.8-9.5c0.8-7.1-1.1-14.3-5.2-20.1c-1.9-2.7-4.3-5.1-7.1-6.9c-2.7-1.8-5.6-3-8.8-3.6C26.2,1.2,24.9,1.1,23.5,1.1z"></path>
	</g>
	<path id="Pfad_6" class="st0" d="M0,34.5c0.1,0.8,0.3,1.5,0.5,2.3c0.2,0.8,0.5,1.5,0.8,2.3s0.6,1.5,1,2.2s0.7,1.4,1.1,2.1   s0.8,1.3,1.2,1.8s0.8,1.1,1.2,1.6s0.8,0.9,1.1,1.2c0.2,0.2,0.3,0.3,0.5,0.5c0.1,0.1,0.1,0.1,0.2,0.2s0.1,0.1,0.2,0.2   C7.9,49,8,49.1,8.1,49.2c0.1,0.1,0.2,0.2,0.3,0.2l0.2,0.2c0,0-0.1-0.1-0.2-0.2c-0.1-0.1-0.2-0.1-0.3-0.2C8,49.1,7.9,49,7.7,48.9   c-0.1-0.1-0.1-0.1-0.2-0.2s-0.1-0.1-0.2-0.2C7.2,48.4,7,48.2,6.8,48c-0.3-0.3-0.7-0.8-1.1-1.2s-0.8-1-1.2-1.6s-0.8-1.2-1.2-1.8   c-0.8-1.4-1.5-2.8-2.1-4.3c-0.3-0.8-0.5-1.5-0.8-2.3"></path>
</g>
<g id="arrow-stil" transform="translate(-0.794 15.949)">
	<path id="Pfad_12" class="st1" d="M71.3,13.6c-12.2-1.2-24.4-0.5-36.6-0.4c-11,0.1-22.1-2.3-33.1-1c-1.3,0.1-0.9,2.1,0.3,2   c11.4-1.3,23,1.2,34.5,1c11.6-0.1,23.2-0.7,34.7,0.4c0.6,0.1,1-0.3,1.1-0.9C72.3,14.1,71.9,13.6,71.3,13.6L71.3,13.6z"></path>
	<path id="Pfad_13" class="st1" d="M55.6,3.2c6.5,4.2,12.5,9.1,19.2,13c0.1-0.6,0.3-1.2,0.4-1.8c-8.7,1.9-16.6,7-25.5,7.7   c-1.3,0.1-0.9,2.1,0.3,2c9-0.7,16.8-5.8,25.5-7.7c0.5-0.1,0.9-0.6,0.8-1.2c0-0.3-0.2-0.5-0.4-0.6c-6.7-3.9-12.7-8.8-19.2-13   C55.6,0.9,54.5,2.5,55.6,3.2z"></path>
</g>
</svg>
