<?xml version="1.0" encoding="utf-8"?>
<!-- Generator: Adobe Illustrator 26.0.2, SVG Export Plug-In . SVG Version: 6.00 Build 0)  -->
<!DOCTYPE svg PUBLIC "-//W3C//DTD SVG 1.1//EN" "http://www.w3.org/Graphics/SVG/1.1/DTD/svg11.dtd" [
	<!ENTITY ns_extend "http://ns.adobe.com/Extensibility/1.0/">
	<!ENTITY ns_ai "http://ns.adobe.com/AdobeIllustrator/10.0/">
	<!ENTITY ns_graphs "http://ns.adobe.com/Graphs/1.0/">
	<!ENTITY ns_vars "http://ns.adobe.com/Variables/1.0/">
	<!ENTITY ns_imrep "http://ns.adobe.com/ImageReplacement/1.0/">
	<!ENTITY ns_sfw "http://ns.adobe.com/SaveForWeb/1.0/">
	<!ENTITY ns_custom "http://ns.adobe.com/GenericCustomNamespace/1.0/">
	<!ENTITY ns_adobe_xpath "http://ns.adobe.com/XPath/1.0/">
]>
<svg version="1.1" id="Ebene_1" xmlns:x="&ns_extend;" xmlns:i="&ns_ai;" xmlns:graph="&ns_graphs;"
	 xmlns="http://www.w3.org/2000/svg" xmlns:xlink="http://www.w3.org/1999/xlink" x="0px" y="0px" viewBox="0 0 30 9"
	 style="enable-background:new 0 0 30 9;" xml:space="preserve">
<style type="text/css">
	.Schlagschatten{fill:none;}
	.Schein_x0020_nach_x0020_außen_x0020__x002D__x0020_5_x0020_Pt_x002E_{fill:none;}
	.Blauer_x0020_Neonrahmen{fill:none;stroke:#8AACDA;stroke-width:7;stroke-linecap:round;stroke-linejoin:round;}
	.Lichter_x0020_Chrom{fill:url(#SVGID_1_);stroke:#FFFFFF;stroke-width:0.3629;stroke-miterlimit:1;}
	.Jive_GS{fill:#FFDD00;}
	.Alyssa_GS{fill:#A6D0E4;}
	.st0{fill:#363636;}
</style>
<metadata>
	<sfw  xmlns="&ns_sfw;">
		<slices></slices>
		<sliceSourceBounds  bottomLeftOrigin="true" height="9" width="30" x="631" y="-514"></sliceSourceBounds>
	</sfw>
</metadata>
<linearGradient id="SVGID_1_" gradientUnits="userSpaceOnUse" x1="-631" y1="-505" x2="-631" y2="-506">
	<stop  offset="0" style="stop-color:#656565"/>
	<stop  offset="0.618" style="stop-color:#1B1B1B"/>
	<stop  offset="0.6292" style="stop-color:#545454"/>
	<stop  offset="0.9831" style="stop-color:#3E3E3E"/>
</linearGradient>
<g id="arrow-stil" transform="translate(0)">
	<path id="Pfad_12" class="st0" d="M27.7,4.8c-4.8-0.6-9.6-0.2-14.4-0.2c-4.3,0-8.7-1.1-13-0.5c-0.5,0-0.4,1,0.1,1
		c4.5-0.6,9,0.6,13.5,0.5c4.6,0,9.1-0.3,13.6,0.2C28.1,5.8,28.2,4.9,27.7,4.8z"/>
	<path id="Pfad_13" class="st0" d="M20.1,0.7c3.1,1.7,5.9,3.6,9.1,5.2c0-0.2,0.1-0.5,0.2-0.7c-4.1,0.8-7.9,2.8-12.1,3.1
		c-0.6,0-0.4,0.8,0.1,0.8c4.3-0.3,8-2.3,12.1-3.1c0.4-0.1,0.6-0.5,0.2-0.7c-3.2-1.5-6-3.5-9.1-5.2C20.1-0.2,19.6,0.4,20.1,0.7
		L20.1,0.7z"/>
</g>
</svg>
