<?xml version="1.0" encoding="UTF-8"?>
<!-- Generator: Adobe Illustrator 26.0.2, SVG Export Plug-In . SVG Version: 6.00 Build 0)  -->
<svg xmlns:x="&ns_extend;" xmlns:i="&ns_ai;" xmlns:graph="&ns_graphs;" xmlns="http://www.w3.org/2000/svg" xmlns:xlink="http://www.w3.org/1999/xlink" version="1.1" id="Ebene_1" x="0px" y="0px" viewBox="0 0 30 9" style="enable-background:new 0 0 30 9;" xml:space="preserve">
<style type="text/css">
	.st0{fill:#363636;}
</style>
<metadata>
	
</metadata>
<linearGradient id="SVGID_1_" gradientUnits="userSpaceOnUse" x1="-631" y1="-505" x2="-631" y2="-506">
	<stop offset="0" style="stop-color:#656565"></stop>
	<stop offset="0.618" style="stop-color:#1B1B1B"></stop>
	<stop offset="0.6292" style="stop-color:#545454"></stop>
	<stop offset="0.9831" style="stop-color:#3E3E3E"></stop>
</linearGradient>
<g id="arrow-stil" transform="translate(0)">
	<path id="Pfad_12" class="st0" d="M2.3,4.2c4.8,0.6,9.6,0.2,14.4,0.2c4.3,0,8.7,1.1,13,0.5c0.5,0,0.4-1-0.1-1   c-4.5,0.6-9-0.6-13.5-0.5c-4.6,0-9.1,0.3-13.6-0.2C1.9,3.2,1.8,4.1,2.3,4.2z"></path>
	<path id="Pfad_13" class="st0" d="M9.9,8.3C6.8,6.6,3.9,4.7,0.7,3.1c0,0.2-0.1,0.5-0.2,0.7c4.1-0.8,7.9-2.8,12.1-3.1   c0.6,0,0.4-0.8-0.1-0.8c-4.3,0.3-8,2.3-12.1,3.1C0,3.1-0.2,3.6,0.2,3.8c3.2,1.5,6,3.5,9.1,5.2C9.9,9.2,10.4,8.6,9.9,8.3L9.9,8.3z"></path>
</g>
</svg>
