<?xml version="1.0" encoding="UTF-8"?>
<!-- Generator: Adobe Illustrator 26.0.2, SVG Export Plug-In . SVG Version: 6.00 Build 0)  -->
<svg xmlns="http://www.w3.org/2000/svg" xmlns:xlink="http://www.w3.org/1999/xlink" version="1.1" id="Ebene_1" x="0px" y="0px" viewBox="0 0 28 28" style="enable-background:new 0 0 28 28;" xml:space="preserve">
<style type="text/css">
	.st0{fill:#363636;}
</style>
<metadata>
	
</metadata>
<linearGradient id="SVGID_1_" gradientUnits="userSpaceOnUse" x1="-623" y1="-497" x2="-623" y2="-498">
	<stop offset="0" style="stop-color:#656565"></stop>
	<stop offset="0.618" style="stop-color:#1B1B1B"></stop>
	<stop offset="0.6292" style="stop-color:#545454"></stop>
	<stop offset="0.9831" style="stop-color:#3E3E3E"></stop>
</linearGradient>
<g id="circle-white_00000075140745648784013810000000914805555818787732_" transform="translate(0)">
	<g id="Gruppe_3_00000086678806022527755020000004732990061177857194_" transform="translate(1.254 1.611)">
		<g id="Gruppe_2_00000095304620042182321490000010639401961114317752_">
			<g id="Gruppe_1_00000096049783125475834440000003378893095435790003_">
				<path id="Pfad_3_00000121977346986507565070000014203668356873928093_" class="st0" d="M6.9,25.1l0.2,0.1c0.1,0,0.3,0.1,0.5,0.2      c0.6,0.2,1.2,0.4,1.8,0.5c0.4,0.1,0.9,0.1,1.4,0.1c0.5,0,1.1,0,1.6-0.1c0.6-0.1,1.2-0.2,1.8-0.4c0.6-0.2,1.3-0.4,1.9-0.7      c1.4-0.7,2.6-1.5,3.8-2.5c1.3-1.1,2.4-2.4,3.4-3.7c0.5-0.7,1-1.5,1.4-2.3c0.2-0.4,0.4-0.8,0.5-1.2c0.2-0.4,0.3-0.9,0.4-1.3      c0.1-0.4,0.2-0.9,0.3-1.3c0-0.2,0.1-0.5,0.1-0.7s0-0.5,0-0.7c0-0.2,0-0.5,0-0.7c0-0.1,0-0.2,0-0.3c0-0.1,0-0.1,0-0.2l0-0.2      c0-0.2-0.1-0.5-0.2-0.7c0-0.1-0.1-0.2-0.1-0.3c0-0.1,0-0.1-0.1-0.2c0-0.1,0-0.1-0.1-0.2l-0.1-0.2L25.2,8l0-0.1l0-0.1L25,7.7      l-0.1-0.2l0-0.1l0-0.1l-0.1-0.2l-0.1-0.1l-0.1-0.1c0,0-0.1-0.1-0.1-0.1c-0.1-0.1-0.1-0.2-0.2-0.3c-0.1-0.2-0.3-0.4-0.4-0.5      c-0.3-0.4-0.6-0.7-1-1c-0.3-0.3-0.7-0.6-1.1-0.9c-0.7-0.5-1.5-1-2.3-1.4c-0.4-0.2-0.8-0.4-1.2-0.6L18,2l-0.3-0.1      c-0.2-0.1-0.4-0.2-0.6-0.2c-0.8-0.3-1.7-0.6-2.5-0.8c-0.8-0.2-1.6-0.4-2.4-0.5c-1.5-0.2-3-0.2-4.5,0c-0.3,0.1-0.7,0.1-1,0.2      C6.3,0.7,6,0.8,5.7,0.9C5.1,1.1,4.6,1.4,4,1.7C3.8,1.8,3.6,2,3.4,2.2C3.1,2.3,2.9,2.5,2.8,2.6c-0.3,0.3-0.7,0.6-0.9,1      C1.7,3.8,1.6,3.9,1.5,4.1C1.4,4.2,1.3,4.4,1.2,4.5C1,4.7,0.8,5,0.7,5.2C0.6,5.4,0.5,5.5,0.5,5.6C0.4,5.7,0.4,5.8,0.4,5.8      s0-0.1,0.1-0.2s0.1-0.3,0.2-0.4S1,4.7,1.1,4.5c0.2-0.3,0.4-0.6,0.6-0.9c0.3-0.4,0.6-0.7,0.9-1c0.4-0.4,0.8-0.7,1.3-1      C4.5,1.3,5,1,5.6,0.8c0.6-0.2,1.3-0.4,2-0.5C8.3,0.1,9.1,0,9.8,0c0.8,0,1.6,0,2.4,0.1c0.8,0.1,1.6,0.3,2.5,0.5      c0.8,0.2,1.7,0.5,2.5,0.8c0.9,0.3,1.7,0.6,2.5,1c0.8,0.4,1.6,0.9,2.4,1.4c0.4,0.3,0.7,0.6,1.1,0.9c0.4,0.3,0.7,0.7,1,1      c0.2,0.2,0.3,0.4,0.4,0.6c0.1,0.1,0.1,0.2,0.2,0.3c0,0,0.1,0.1,0.1,0.2c0,0.1,0.1,0.1,0.1,0.2L25,7l0.1,0.2l0,0.1l0,0.1l0.1,0.2      l0.1,0.2l0,0.1l0,0.1c0,0.1,0,0.1,0.1,0.2l0.1,0.2c0,0.1,0,0.1,0.1,0.2c0,0.1,0,0.1,0.1,0.2c0,0.1,0.1,0.2,0.1,0.3      c0.1,0.2,0.1,0.5,0.2,0.7l0,0.2c0,0.1,0,0.1,0,0.2c0,0.1,0,0.2,0,0.4c0,0.2,0,0.5,0,0.7c0,0.2,0,0.5,0,0.7s0,0.5-0.1,0.7      c-0.1,0.5-0.2,0.9-0.3,1.4c-0.1,0.4-0.3,0.9-0.4,1.3c-0.2,0.4-0.4,0.9-0.6,1.3c-0.4,0.8-0.9,1.6-1.4,2.3c-1,1.4-2.1,2.7-3.5,3.8      c-1.2,1-2.5,1.8-3.8,2.5c-1.2,0.5-2.4,0.9-3.7,1.1c-0.5,0.1-1.1,0.1-1.6,0.1c-0.5,0-0.9-0.1-1.4-0.1c-0.4-0.1-0.7-0.2-1.1-0.3      c-0.3-0.1-0.6-0.2-0.8-0.3s-0.4-0.2-0.5-0.2C7,25.1,6.9,25.1,6.9,25.1z"></path>
			</g>
		</g>
	</g>
	<g id="Gruppe_4_00000153684244191418252540000012474725162340295864_" transform="translate(0.562 1.648)">
		<path id="Pfad_4_00000158729852239160031130000008899405053597472398_" class="st0" d="M13.7,25.7c-1.4,0-2.8-0.2-4.1-0.6    c-1.7-0.5-3.2-1.3-4.5-2.4c-5.4-4.5-6.2-12.5-1.7-18s12.5-6.2,18-1.7l0,0c1.3,1.1,2.4,2.5,3.3,4c0.8,1.5,1.3,3.1,1.5,4.8    c0.2,1.7,0.1,3.4-0.3,5c-0.9,3.4-3.2,6.2-6.3,7.7c-1.5,0.7-3.2,1.2-4.8,1.3C14.3,25.7,14,25.7,13.7,25.7z M13.2,0.3    c-0.4,0-0.8,0-1.2,0.1C5.1,1,0.1,7.1,0.8,14c0.3,3.3,1.9,6.3,4.5,8.4c1.3,1.1,2.8,1.9,4.4,2.4c1.6,0.5,3.2,0.7,4.9,0.6    c1.6-0.1,3.2-0.5,4.7-1.2c1.5-0.7,2.8-1.8,3.9-3.1l0.1,0.1L23.2,21c1.1-1.3,1.8-2.8,2.3-4.4c0.4-1.6,0.5-3.2,0.3-4.9    c-0.2-1.6-0.7-3.2-1.5-4.7c-0.8-1.5-1.9-2.8-3.2-3.9c-1.3-1.1-2.8-1.9-4.4-2.3C15.6,0.5,14.4,0.3,13.2,0.3z"></path>
	</g>
	<g id="Gruppe_5_00000113314899313159757660000011057838056564875934_" transform="translate(1.168)">
		<path id="Pfad_5_00000003068620931443405120000013229423765747926708_" class="st0" d="M13.8,28c-0.7,0-1.5-0.1-2.2-0.2    c-1.7-0.3-3.2-1-4.6-1.9c-1.5-1-2.7-2.2-3.7-3.7c-2.2-3.1-3.1-6.8-2.7-10.6c0.2-1.7,0.7-3.4,1.5-5c0.8-1.5,1.8-2.8,3.1-3.9    c2.6-2.2,6.1-3.1,9.5-2.5c1.7,0.3,3.2,1,4.6,1.9c1.5,1,2.7,2.2,3.7,3.6c2.2,3.1,3.1,6.8,2.7,10.6c-0.2,1.7-0.7,3.4-1.5,5    c-0.8,1.5-1.8,2.8-3.1,3.9C19.1,27,16.5,28,13.8,28L13.8,28z M12.5,0.3c-2.6,0-5.1,0.9-7.1,2.6C4.1,4,3,5.3,2.3,6.7    C1.5,8.3,1,9.9,0.8,11.6C0.4,15.3,1.4,19,3.5,22c1,1.4,2.2,2.6,3.7,3.6c1.4,0.9,2.9,1.6,4.5,1.9c3.3,0.6,6.7-0.2,9.3-2.4    c1.3-1.1,2.3-2.4,3.1-3.8c0.8-1.5,1.3-3.2,1.5-4.9C25.8,12.7,24.9,9,22.8,6c-1-1.4-2.2-2.6-3.7-3.6c-1.4-0.9-2.9-1.6-4.5-1.9    C13.9,0.4,13.2,0.3,12.5,0.3z"></path>
	</g>
	<path id="Pfad_6_00000154388878400493203830000001089136970411622574_" class="st0" d="M0.4,16.7c0.1,0.4,0.1,0.7,0.3,1.1   c0.1,0.4,0.2,0.8,0.4,1.1c0.1,0.4,0.3,0.7,0.5,1.1s0.4,0.7,0.5,1s0.4,0.6,0.6,0.9c0.2,0.3,0.4,0.5,0.6,0.8s0.4,0.4,0.5,0.6   c0.1,0.1,0.2,0.2,0.2,0.2c0,0,0.1,0.1,0.1,0.1c0,0,0.1,0.1,0.1,0.1c0.1,0.1,0.1,0.1,0.2,0.2c0,0,0.1,0.1,0.1,0.1l0.1,0.1   c0,0,0,0-0.1-0.1c0,0-0.1-0.1-0.1-0.1c-0.1,0-0.1-0.1-0.2-0.2c0,0-0.1-0.1-0.1-0.1c0,0-0.1-0.1-0.1-0.1c-0.1-0.1-0.2-0.2-0.2-0.2   c-0.2-0.2-0.4-0.4-0.6-0.6C3,22.5,2.8,22.2,2.6,22c-0.2-0.3-0.4-0.6-0.6-0.9c-0.4-0.7-0.7-1.4-1-2.1c-0.1-0.4-0.3-0.8-0.4-1.1"></path>
</g>
</svg>
