<?xml version="1.0" encoding="UTF-8"?>
<!-- Generator: Adobe Illustrator 26.0.2, SVG Export Plug-In . SVG Version: 6.00 Build 0)  -->
<svg xmlns="http://www.w3.org/2000/svg" xmlns:xlink="http://www.w3.org/1999/xlink" version="1.1"  x="0px" y="0px" viewBox="0 0 38 39" style="enable-background:new 0 0 38 39;" xml:space="preserve">
<style type="text/css">
	.st0{fill:#D8232A;}
</style>
<linearGradient gradientUnits="userSpaceOnUse" x1="-619" y1="-492" x2="-619" y2="-493">
	<stop offset="0" style="stop-color:#656565"></stop>
	<stop offset="0.618" style="stop-color:#1B1B1B"></stop>
	<stop offset="0.6292" style="stop-color:#545454"></stop>
	<stop offset="0.9831" style="stop-color:#3E3E3E"></stop>
</linearGradient>
<g transform="translate(0)">
	<g transform="translate(1.746 2.242)">
		<g>
			<g>
				<path class="st0" d="M9.5,34.7l0.2,0.1c0.1,0.1,0.4,0.2,0.6,0.3c0.8,0.3,1.7,0.5,2.5,0.7c0.6,0.1,1.2,0.2,1.9,0.2      c0.7,0,1.5,0,2.2-0.1c0.8-0.1,1.6-0.3,2.4-0.5c0.9-0.3,1.7-0.6,2.6-1c1.9-0.9,3.6-2,5.2-3.4c1.8-1.5,3.3-3.2,4.6-5.1      c0.7-1,1.3-2.1,1.9-3.2c0.3-0.6,0.5-1.1,0.8-1.7c0.2-0.6,0.4-1.2,0.6-1.8c0.2-0.6,0.3-1.2,0.4-1.9c0-0.3,0.1-0.6,0.1-0.9      c0-0.3,0-0.6,0-0.9s0-0.6-0.1-0.9c0-0.2,0-0.3-0.1-0.5c0-0.1,0-0.2,0-0.2l0-0.2c-0.1-0.3-0.1-0.6-0.2-0.9c0-0.2-0.1-0.3-0.1-0.5      c0-0.1-0.1-0.2-0.1-0.2s-0.1-0.2-0.1-0.2l-0.1-0.2l-0.1-0.2l0-0.1L34.5,11l-0.1-0.2l-0.1-0.2l-0.1-0.1l-0.1-0.1L34,10.2L33.9,10      c0-0.1-0.1-0.1-0.1-0.2s-0.1-0.1-0.1-0.2c-0.1-0.1-0.2-0.3-0.3-0.4c-0.2-0.3-0.4-0.5-0.6-0.8c-0.4-0.5-0.9-0.9-1.3-1.4      c-0.5-0.4-1-0.8-1.5-1.2c-1-0.7-2.1-1.4-3.2-1.9c-0.6-0.3-1.1-0.5-1.7-0.8L24.7,3c-0.1-0.1-0.3-0.1-0.4-0.2      c-0.3-0.1-0.6-0.2-0.8-0.3c-1.1-0.4-2.3-0.8-3.4-1c-1.1-0.3-2.2-0.5-3.3-0.7c-2.1-0.3-4.1-0.3-6.2,0C10,0.9,9.5,1,9.1,1.1      S8.2,1.4,7.8,1.5C7,1.8,6.3,2.2,5.6,2.6C5.2,2.8,4.9,3,4.6,3.2S4,3.7,3.8,3.9C3.3,4.3,2.9,4.7,2.5,5.2C2.3,5.4,2.2,5.7,2,5.9      S1.7,6.2,1.6,6.4C1.3,6.8,1.1,7.1,1,7.4S0.7,7.8,0.7,8C0.6,8.1,0.5,8.2,0.5,8.2s0-0.1,0.1-0.2C0.7,7.8,0.8,7.6,1,7.4      s0.3-0.6,0.6-1C1.8,6,2.1,5.6,2.4,5.2c0.4-0.5,0.8-0.9,1.3-1.4c0.5-0.5,1.1-1,1.8-1.3C6.2,2,6.9,1.6,7.7,1.3      C8.6,1,9.5,0.7,10.4,0.6c1-0.2,2-0.3,3-0.3c1.1,0,2.2,0.1,3.3,0.2c1.1,0.1,2.3,0.4,3.4,0.6c1.1,0.3,2.3,0.6,3.4,1      c1.2,0.4,2.3,0.9,3.4,1.4c1.1,0.6,2.2,1.2,3.3,1.9c0.5,0.4,1,0.8,1.5,1.2c0.5,0.4,0.9,0.9,1.4,1.4c0.2,0.2,0.4,0.5,0.6,0.8      C33.8,9,33.9,9.1,34,9.3c0,0.1,0.1,0.1,0.1,0.2s0.1,0.1,0.1,0.2l0.1,0.2l0.1,0.2l0.1,0.1l0.1,0.1l0.1,0.2l0.1,0.2l0.1,0.1      l0.1,0.1c0,0.1,0.1,0.2,0.1,0.2l0.1,0.2c0,0.1,0.1,0.2,0.1,0.2s0.1,0.2,0.1,0.2c0.1,0.2,0.1,0.3,0.2,0.5c0.1,0.3,0.2,0.6,0.2,1      l0,0.2c0,0.1,0,0.2,0,0.2c0,0.2,0,0.3,0.1,0.5c0,0.3,0.1,0.7,0.1,1c0,0.3,0,0.7,0,1c0,0.3-0.1,0.6-0.1,1      c-0.1,0.6-0.2,1.3-0.4,1.9c-0.2,0.6-0.4,1.2-0.6,1.8c-0.2,0.6-0.5,1.2-0.8,1.7c-0.6,1.1-1.2,2.2-1.9,3.2c-1.4,1.9-3,3.7-4.7,5.2      c-1.6,1.4-3.4,2.5-5.3,3.4c-1.6,0.8-3.3,1.2-5.1,1.5c-0.7,0.1-1.5,0.1-2.2,0.1c-0.6,0-1.3-0.1-1.9-0.2c-0.5-0.1-1-0.2-1.5-0.4      c-0.4-0.1-0.8-0.3-1.1-0.4s-0.5-0.2-0.6-0.3C9.6,34.8,9.5,34.7,9.5,34.7z"></path>
			</g>
		</g>
	</g>
	<g transform="translate(0.782 2.294)">
		<path class="st0" d="M18.8,35.5c-1.9,0-3.8-0.3-5.6-0.9c-2.3-0.7-4.4-1.8-6.2-3.4c-7.5-6.2-8.6-17.2-2.4-24.7    s17.2-8.6,24.7-2.4c0,0,0,0,0,0c1.8,1.5,3.4,3.4,4.5,5.5c1.1,2.1,1.8,4.3,2.1,6.6c0.3,2.3,0.1,4.6-0.4,6.9    c-1.2,4.6-4.4,8.5-8.7,10.5c-2.1,1-4.3,1.6-6.6,1.7C19.6,35.5,19.2,35.5,18.8,35.5z M18.1,0.7c-0.5,0-1.1,0-1.7,0.1    C7,1.6,0.1,10,1,19.4c0.4,4.5,2.6,8.7,6.2,11.6c1.8,1.5,3.9,2.6,6.1,3.3c2.2,0.7,4.5,1,6.7,0.8c2.3-0.1,4.5-0.7,6.5-1.7    c2.1-1,3.9-2.4,5.4-4.2l0.2,0.1l-0.2-0.1c1.5-1.8,2.5-3.8,3.1-6.1c0.6-2.2,0.7-4.5,0.4-6.7c-0.3-2.3-1-4.5-2.1-6.5    c-1.1-2.1-2.6-3.9-4.4-5.4c-1.8-1.5-3.8-2.5-6-3.2C21.4,0.9,19.8,0.7,18.1,0.7z"></path>
	</g>
	<g transform="translate(1.626 0)">
		<path class="st0" d="M18.1,36.9c-1,0-1.9-0.1-2.9-0.3c-2.2-0.4-4.2-1.3-6.1-2.5c-1.9-1.3-3.6-2.9-4.9-4.8    c-2.8-4-4.1-9-3.6-13.9c0.2-2.3,0.9-4.5,2-6.5c1-2,2.4-3.7,4.1-5.1c3.5-2.9,8-4.1,12.5-3.2c2.2,0.4,4.2,1.3,6.1,2.5    c1.9,1.3,3.6,2.9,4.9,4.8c2.8,4,4.1,9,3.6,13.9c-0.2,2.3-0.9,4.5-2,6.5c-1,2-2.4,3.7-4.1,5.1C25,35.6,21.6,36.9,18.1,36.9z     M16.3,0.7c-3.4,0-6.7,1.2-9.4,3.4c-1.7,1.4-3,3.1-4,5c-1,2-1.7,4.2-1.9,6.4c-0.5,4.8,0.7,9.6,3.5,13.6c1.3,1.8,2.9,3.4,4.8,4.7    c1.8,1.2,3.8,2,5.9,2.4C19.6,37,24,35.8,27.4,33c1.7-1.4,3-3.1,4-5c1-2,1.7-4.2,1.9-6.4c0.5-4.8-0.7-9.6-3.5-13.6    c-1.3-1.8-2.9-3.4-4.8-4.7c-1.8-1.2-3.8-2-5.9-2.4C18.2,0.8,17.3,0.7,16.3,0.7z"></path>
	</g>
	<path class="st0" d="M0.5,23.2c0.1,0.5,0.2,1,0.4,1.5c0.1,0.5,0.3,1,0.5,1.5s0.4,1,0.6,1.5s0.5,0.9,0.7,1.4   s0.5,0.9,0.8,1.2s0.5,0.7,0.8,1.1s0.5,0.6,0.7,0.8c0.1,0.1,0.2,0.2,0.3,0.3c0.1,0.1,0.1,0.1,0.1,0.1s0.1,0.1,0.1,0.1   C5.8,33,5.9,33.1,6,33.1c0.1,0.1,0.1,0.1,0.2,0.2l0.1,0.1c0,0-0.1,0-0.1-0.1c-0.1,0-0.1-0.1-0.2-0.2S5.8,33,5.7,32.9   c0,0-0.1-0.1-0.1-0.1s-0.1-0.1-0.1-0.1c-0.1-0.1-0.2-0.2-0.3-0.3c-0.2-0.2-0.5-0.5-0.8-0.8s-0.5-0.7-0.8-1S3,29.7,2.7,29.2   c-0.6-0.9-1-1.9-1.4-2.9c-0.2-0.5-0.4-1-0.5-1.6"></path>
</g>
</svg>
