<?xml version="1.0" encoding="UTF-8"?>
<!-- Generator: Adobe Illustrator 26.0.2, SVG Export Plug-In . SVG Version: 6.00 Build 0)  -->
<svg xmlns="http://www.w3.org/2000/svg" xmlns:xlink="http://www.w3.org/1999/xlink" version="1.1"  x="0px" y="0px" viewBox="0 0 30 9" style="enable-background:new 0 0 30 9;" xml:space="preserve">
<style type="text/css">
	.st0{fill:#363636;}
</style>
<linearGradient gradientUnits="userSpaceOnUse" x1="-631" y1="-505" x2="-631" y2="-506">
	<stop offset="0" style="stop-color:#656565"></stop>
	<stop offset="0.618" style="stop-color:#1B1B1B"></stop>
	<stop offset="0.6292" style="stop-color:#545454"></stop>
	<stop offset="0.9831" style="stop-color:#3E3E3E"></stop>
</linearGradient>
<g transform="translate(0)">
	<path class="st0" d="M27.7,4.8c-4.8-0.6-9.6-0.2-14.4-0.2c-4.3,0-8.7-1.1-13-0.5c-0.5,0-0.4,1,0.1,1   c4.5-0.6,9,0.6,13.5,0.5c4.6,0,9.1-0.3,13.6,0.2C28.1,5.8,28.2,4.9,27.7,4.8z"></path>
	<path class="st0" d="M20.1,0.7c3.1,1.7,5.9,3.6,9.1,5.2c0-0.2,0.1-0.5,0.2-0.7c-4.1,0.8-7.9,2.8-12.1,3.1   c-0.6,0-0.4,0.8,0.1,0.8c4.3-0.3,8-2.3,12.1-3.1c0.4-0.1,0.6-0.5,0.2-0.7c-3.2-1.5-6-3.5-9.1-5.2C20.1-0.2,19.6,0.4,20.1,0.7   L20.1,0.7z"></path>
</g>
</svg>
