<?xml version="1.0" encoding="UTF-8"?>
<!-- Generator: Adobe Illustrator 26.0.2, SVG Export Plug-In . SVG Version: 6.00 Build 0)  -->
<svg xmlns="http://www.w3.org/2000/svg" xmlns:xlink="http://www.w3.org/1999/xlink" version="1.1" id="Ebene_1" x="0px" y="0px" viewBox="0 0 30 36" style="enable-background:new 0 0 30 36;" xml:space="preserve">
<style type="text/css">
	.st0{fill:#020203;}
</style>
<metadata>
	
</metadata>
<linearGradient id="SVGID_1_" gradientUnits="userSpaceOnUse" x1="-631" y1="-491" x2="-631" y2="-492">
	<stop offset="0" style="stop-color:#656565"></stop>
	<stop offset="0.618" style="stop-color:#1B1B1B"></stop>
	<stop offset="0.6292" style="stop-color:#545454"></stop>
	<stop offset="0.9831" style="stop-color:#3E3E3E"></stop>
</linearGradient>
<g id="phone" transform="translate(10.441) rotate(20)">
	<path id="Pfad_29" class="st0" d="M21.6,3.1c0-0.3-0.1-0.7-0.1-1c-0.4-0.8-1-1.3-1.8-1.6c-0.4-0.1-0.8-0.2-1.2-0.2   c-2.6-0.7-5.2-1.2-7.9-1.5C9.7-1.4,8.8-1.4,8-1.5c-0.5,0-1-0.1-1.4-0.2C6.4-1.9,5.7-2,5.6-2C5.1-1.9,4.7-1.7,4.3-1.5   C4.1-1.1,4-0.7,3.9-0.3C3.7,1,3.5,2.2,3.6,3.5C3,8.7,2.1,13.8,0.9,18.9c-0.5,2.1-0.7,4.3-1,6.4c-0.1,0.7-0.1,1.4-0.2,2.1   c0,0.2,0,0.3,0,0.5l0,0.4c0,0.2,0,0.5,0,0.7c0,0.3,0.1,0.7,0.3,1c2.2,1.1,4.7,0.6,7,1.3c0.8,0.3,1.6,0.5,2.4,0.7   c0.4,0.1,1.3,0.2,1.3,0.2c1.1,0.2,2.2,0.3,3.2,0.4c0.4,0.1,0.7,0.1,1.1,0.1c0.2-0.1,0.4-0.1,0.6-0.1c0.6-0.1,1.1-0.3,1.5-0.6   c1-1,0.9-3.8,1.1-5c0.4-2.8,0.6-5.5,1.1-8.3c0.4-2.8,1.2-5.3,1.7-8.2c0.3-1.8,0.5-3.6,0.5-5.4C21.6,4.4,21.6,3.7,21.6,3.1z    M20.9,7.2c-0.3,2.7-0.7,5.4-1.3,8.1c-0.4,1.3-0.7,2.7-0.8,4.1c0,0.7-0.1,1.4-0.2,2.1c-0.5,2.4-0.7,4.8-1,7.1   c-0.1,0.8-0.3,1.6-0.5,2.3c-0.1,0.3-0.3,0.7-0.6,0.9c-0.5,0.2-1.1,0.3-1.7,0.4c-0.3,0-0.6,0-0.9-0.1c-2.9,0-5.7-1.2-8.5-1.7   c-1-0.2-2.1,0.1-3.1-0.1c-0.5-0.1-1.3-0.6-1.4-0.6c-0.2,0-0.5-0.1-0.7-0.1c-0.3-0.1-0.1-1-0.1-1.1l0.1-1.1c0-0.2,0.1-0.4,0.1-0.6   c0.3-4.7,1.5-9.4,2.1-14.1c0.2-1.6,0.6-3.2,0.8-4.8C3.4,7.3,3.4,6.7,3.5,6c0-0.1,0-0.2,0-0.3L4,3c-0.1-0.5-0.1-1,0-1.5   c0.1-0.3,0.1-1,0.2-1.1c0.1-0.4,0.2-0.7,0.3-1.1c0.1-0.2,0.2-0.6,0.3-0.6C6-1.3,7.1-1,8.4-1C8.8-1,9.1-1,9.5-0.9   c0.3,0,0.8,0.1,0.9,0.1c0.6,0.1,1.2,0.3,1.8,0.5C13-0.3,13.8-0.1,14.5,0c1.9,0.3,6,0.5,6.4,2.4C21.2,4,21.2,5.6,20.9,7.2z"></path>
	<path id="Pfad_30" class="st0" d="M12.1,1.5c0,0.1,0.2,0.1,0.2,0.1c0.2,0.1,0.3,0.1,0.5,0.1c0.1,0,0.2-0.2,0.3-0.2   c0.1,0,0.2-0.3,0.3-0.3c0.1-0.1-0.1-0.3-0.1-0.3l0-0.1c0-0.2-0.1-0.5-0.2-0.7c-0.2-0.1-0.6,0.1-0.6,0.1c-0.1,0-0.3,0.1-0.3,0.1   c-0.1,0.1-0.2,0.2-0.3,0.3l0-0.2c-0.1,0.2-0.3,0.6-0.2,0.9C11.7,1.6,12.1,1.4,12.1,1.5z"></path>
	<path id="Pfad_31" class="st0" d="M19.2,3.6c-0.3-0.4-0.7-0.7-1.1-0.8c0,0-0.5-0.2-0.5-0.1c0,0-2.1-0.3-2.6-0.4   c-1.2-0.3-2.5-0.5-3.8-0.4c-0.7,0-1.4-0.5-2-0.4c-0.3,0-0.6,0.2-0.9,0.2c-0.3-0.1-0.7-0.1-1-0.1C7,1.4,6.7,1.3,6.7,1.3   c-0.2,0-0.3-0.1-0.5-0.1C5.8,1.1,5.8,2.3,5.7,2.6c-0.3,1.7-0.8,3.4-1,5.1c-0.5,3.9-1.3,7.9-2,11.8c-0.3,1.3-0.5,2.6-0.5,4   c0,0.4,0,0.7-0.1,1.1C2.1,24.7,2,25.2,2,25l0,0.1c0.1,0.7,0.6,1.2,1.3,1.2c2.5,0,5.7,1.3,8.3,1.7c0.9,0.2,1.7,0.2,2.4,0.3   c0.4,0,0.8,0,1.2-0.1c1.4-0.5,1.3-3.6,1.5-4.8c0.1-0.8,0.3-2.2,0.3-2.3c0.2-1.7,0.8-3.3,1-5c0.3-2.2,0.5-4.5,0.7-6.7   c0.2-1.3,0.2-2.6,0.4-4c0.1-0.4,0.1-0.9,0.1-1.3C19.3,4,19.3,3.8,19.2,3.6z M17.7,15.8c-0.1,1.2-0.5,2.5-0.7,3.7   c-0.1,0.5-0.2,1-0.3,1.4c-0.1,0.2,0,0.7,0,0.8c-0.3,1.4-0.6,2.7-0.8,4.1c0,0.5-0.1,0.9-0.2,1.4c0,0.2-0.1,0.4-0.3,0.6   c-0.8,0.3-1.7,0.3-2.6,0c-2-0.2-4.1-0.6-6-1.3c-0.8-0.3-1.7-0.1-2.6-0.4C4,26,3.2,25.8,3.2,25.8c0.2-0.1-0.7-0.3-0.7-0.3   c-0.1,0-0.1-0.1-0.1-0.1c0-0.8,0.1-1.6,0.2-2.4c0.1-0.4,0.2-1.2,0.2-1.2C3.4,17.3,4,12.7,5,8.3c0.4-1.5,0.3-2.9,0.8-4.4   C6,3.3,6.1,2.6,6.2,2c0-0.1,0-0.2,0.1-0.3c0,0,0.1-0.1,0.1-0.1c-0.1,0,0.5,0.1,0.6,0.2C7.4,1.9,7.9,2,8.3,1.9   c0.3,0,0.8-0.1,0.8-0.1c0.5,0.1,1.1,0.3,1.7,0.4c0.3,0,0.6,0,1,0c1.6,0,3,0.7,4.6,0.7c0.4,0,0.8,0.1,1.2,0.2   c0.3,0.1,0.9,0.4,0.9,0.4l0,0c0.1,0,0.2,0.1,0.2,0.1c0,0,0,0.1,0,0.1c0,0.3,0.1,0.6,0.1,0.9C18.3,8.2,18.1,12.1,17.7,15.8z"></path>
	<path id="Pfad_32" class="st0" d="M8.1,28c-0.5,0-0.9-0.1-1.3-0.2c-0.2-0.1-0.7-0.1-0.7-0.2c0,0-0.1,0-0.1,0c0,0.1-0.4,0-0.4,0.1   C5.5,27.7,5.6,28,5.6,28c-0.5,1.4,2.8,1.5,3.7,1.7c0.3,0.1,0.7,0.1,1.1,0.1c0.2,0,0.4,0,0.6,0c0.2-0.1,0.3-0.3,0.4-0.5   c0-0.4-0.1-0.7-0.3-1C10.2,28,9.2,27.9,8.1,28z M10.9,29.3c-0.5,0-1,0-1.5-0.1C8.7,29.1,8,29,7.2,28.9c-0.4-0.1-0.8-0.2-1.2-0.4   C5.8,28.4,6,28,6.1,28c0.6,0.1,1.1,0.2,1.7,0.4c0.5,0.1,1.1-0.1,1.6,0c0.3,0.1,0.7,0.1,1.1,0.2c0.2,0,0.5,0.1,0.5,0.2   C11,28.9,11,29.3,10.9,29.3L10.9,29.3z"></path>
	<path id="Pfad_33" class="st0" d="M16.8,12.2c0-0.1-0.1-0.1-0.2-0.1c-0.1-0.3-0.3-0.6-0.5-0.8L15.4,10c-0.5-0.7-1-1.5-1.4-2.2   c-1-1.5-2-3.1-3.1-4.6c-0.1-0.1-0.3,0-0.2,0.1c0.8,1.6,1.8,3,2.8,4.5c0.9,1.6,1.8,3.1,3,4.5c0.1,0.1,0.2,0.1,0.3,0.1   c0,0,0.1,0,0.1,0C16.9,12.4,16.9,12.3,16.8,12.2C16.9,12.2,16.8,12.2,16.8,12.2z"></path>
	<path id="Pfad_34" class="st0" d="M16.9,8.6L16.9,8.6c-0.1-0.1-0.1-0.1-0.2,0C16.8,8.5,16.8,8.5,16.9,8.6c-0.1-0.1-0.2-0.1-0.2-0.2   c-0.1-0.2-0.3-0.4-0.5-0.6c-0.3-0.4-0.5-0.8-0.8-1.2c-0.4-0.8-1-1.6-1.7-2.2c-0.1-0.1-0.3,0.1-0.2,0.2c0.6,0.7,1.1,1.6,1.6,2.4   c0.3,0.8,0.8,1.5,1.4,2c0.1,0.1,0.2,0.1,0.3,0l0,0C17,8.8,17,8.6,16.9,8.6L16.9,8.6z"></path>
	<path id="Pfad_35" class="st0" d="M16,4.6c-0.1-0.1-0.2,0-0.2,0.1c0.3,0.7,0.8,1.3,1.2,1.8c0.1,0.1,0.2,0.1,0.3,0.1   c0,0,0.1,0,0.1-0.1c0.1-0.1,0.1-0.2,0-0.3C17,5.7,16.5,5.1,16,4.6z"></path>
</g>
</svg>
