<svg xmlns="http://www.w3.org/2000/svg" xmlns:xlink="http://www.w3.org/1999/xlink" width="28.669" height="29.438" viewBox="0 0 28.669 29.438">
  <defs>
    <clipPath id="clip-path">
      <rect width="28.669" height="29.439" fill="#020203"/>
    </clipPath>
  </defs>
  <g transform="translate(0 0)" clip-path="url(#clip-path)">
    <path d="M28.585,14.275c-.055-.3-.109-.607-.165-.908-.029-.144-.08-.437-.083-.471a9.22,9.22,0,0,0-.94-3.715c-.252-.451-.534-.888-.783-1.341-.124-.236-.4-.7-.405-.73-.1-.3-.213-.6-.332-.875l-.022-.047.007.013-.01-.019c-.023-.052-.052-.111-.082-.166A12.732,12.732,0,0,0,23.33,2.9a4.3,4.3,0,0,0-1.045-.739c-.191-.095-.564-.3-.6-.319a15.294,15.294,0,0,0-2.088-.72c-.293-.085-.579-.188-.878-.249-.157-.034-.475-.09-.475-.141,0-.2-.586-.219-.623-.252A9.337,9.337,0,0,0,15.1.067C14.616.051,13.639.01,13.6.007a4.451,4.451,0,0,0-.548.006,5.548,5.548,0,0,0-.768.082c-.156.023-.475.083-.512.083a10.018,10.018,0,0,0-6.962,2.93c-.6.6-1.105,1.212-1.649,1.855-.274.322-.824.968-.841,1A13.783,13.783,0,0,0,.311,10.838l-.017,0c-.025.022-.017.057,0,.093-.02.115-.045.229-.063.344A12.154,12.154,0,0,0,0,13.13c.007.327.036.975.041,1.009.066.754.15,1.5.23,2.254.036.327.095.977.1,1.01a20.782,20.782,0,0,0,.653,3.5,13.09,13.09,0,0,0,6.29,6.863,14.421,14.421,0,0,0,4.791,1.3,10.059,10.059,0,0,1,1.938.235,5.12,5.12,0,0,0,.951.111c.23.015.7.035.732.025a15.659,15.659,0,0,0,2.688-.646c.391-.2.781-.394,1.174-.593a1.767,1.767,0,0,1,.233-.1,6.237,6.237,0,0,0,2.56-1.171c.548-.373.9-1.12,1.5-1.346,1.5-.561,2.623-2.365,3.365-3.633.477-.815.542-2,.914-2.721a.585.585,0,0,0,.219-.1c.02-.045-.038-.1-.095-.144a3.221,3.221,0,0,0,.131-.6c.015-.1-.01-.236,0-.236.121,0,.22-1.251.22-1.379a13.16,13.16,0,0,0-.048-2.489M22.511,2.685a12.859,12.859,0,0,1,1.58,1.631c.156.194.35.366.5.564.076.1.233.311.255.34A6.3,6.3,0,0,1,25.7,6.664c.052.146.134.366.2.545h-.047a24.439,24.439,0,0,0-2.627.316c-.01-.023-.019-.041-.02-.047a26.524,26.524,0,0,0-1.115-2.874l-.625-1.1a3.176,3.176,0,0,0-.458-.468,7.7,7.7,0,0,0-1.257-1.652,7.177,7.177,0,0,1,2.76,1.3M18.789,1.128a.16.16,0,0,0-.029.127c.017.07.219.067.252.087a3.62,3.62,0,0,1,1.06,1.04c.162.2.48.589.48.589L20.576,3a7.074,7.074,0,0,1,1.292,1.857c.1.222.3.414.376.639.048.125.136.37.139.4a8.5,8.5,0,0,0,.488,1.675c-.131.015-.26.029-.382.041a17.057,17.057,0,0,1-2.709.016c.019-.512.032-1.022.044-1.529a8.8,8.8,0,0,0-.1-2.187c-.066-.36-.238-1.077-.26-1.107-.066-.092-.2-.273-.211-.306-.184-.42-.561-1.172-.679-1.427l.211.055m4.3,7.023c.087.242.15.5.245.741.051.127.182.37.19.4a19.949,19.949,0,0,1-.054,6.155,5.5,5.5,0,0,1-.2,1c-.118.364-.233.732-.351,1.1a10.773,10.773,0,0,1-1.959-.206c-.825-.283-1.688-.548-2.557-.838.417-1.508.706-3.05.971-4.555a31.45,31.45,0,0,0,.4-4.078c.029,0,.057,0,.086.007a19.9,19.9,0,0,0,3.11-.054c.041.108.082.216.12.322M17.468,24.616a10.013,10.013,0,0,0-.854-.713c-.451-.334-.889-.7-1.365-1-.015-.009-.032-.019-.047-.029a15.534,15.534,0,0,0,1.984-3.049,19.183,19.183,0,0,0,1.153-3.1c.031.009.06.017.09.025.175.051.512.179.548.2a10.243,10.243,0,0,0,3.035.851c.265.028.528.064.79.1-.015.047-.029.089-.036.1-.257.51-.516,1.022-.773,1.534-.029.064-.09.185-.109.216a27,27,0,0,1-4.047,4.493l-.37.367M11.7,28.033c0,.159-.34-.026-.512-.034a6.434,6.434,0,0,0-.768,0l-.108.009a9.743,9.743,0,0,0,.752-.641c1.3-1.436,2.7-2.774,3.922-4.237.061.031.124.066.144.079a21.893,21.893,0,0,1,2.062,1.669,8,8,0,0,1-.951.787c-.3.206-.885.62-.921.643-.621.379-1.346.666-1.986.978-.27.134-.841.37-.83.445.007.057-.955.2-.951.268,0,.015.146.02.146.034M19.531,7.61a15.907,15.907,0,0,1-3.07-.551c.114-.344.229-.687.343-1.031.359-1.076.684-2.167.987-3.253.063-.219.4-1.009.5-1.528a1.913,1.913,0,0,1,.194.276c.162.347.443.949.637,1.379a6.531,6.531,0,0,1,.364,1.75c.063.971.073,1.961.041,2.958M14.948,22.732l0,0a10.186,10.186,0,0,0-2.955-1.191c.206-.655.414-1.308.633-1.958.131-.4.172-.811.322-1.2.23-.6.464-1.2.694-1.8.022-.064.074-.192.082-.226q.14-.641.3-1.282l.268.1c1.057.4,2.051.914,3.127,1.277.181.061.366.115.553.168-.029.09-.054.184-.085.274a19.134,19.134,0,0,1-2.925,5.82l-.448-.283Zm-1.792,1.959-.025.025-.036.039c-.77.806-1.538,1.614-2.318,2.41-.117.12-.347.283-.564.453.061-.257.09-.537.157-.763s.2-.674.208-.707c.453-1.458.888-2.923,1.343-4.381a4.509,4.509,0,0,1,1.181.378c.544.283,1.086.569,1.631.851-.363.437-.761.853-1.161,1.264l.2-.214-.615.644m-4.416-8.4c.106-.9.223-1.79.381-2.664.491.1.977.194,1.448.309a27.459,27.459,0,0,1,3.117,1.016c-.08.369-.169.735-.255,1.1-.022.09-.083.268-.095.3-.589,1.7-1.117,3.407-1.626,5.122a18.986,18.986,0,0,0-2.349-.331c-.276-.023-.589-.055-.913-.083a38.508,38.508,0,0,1,.292-4.775M17.535,1.407c.09-.085.274-.252.274-.219a.092.092,0,0,0,.069,0,25.6,25.6,0,0,0-.983,3.4c-.245.793-.51,1.582-.776,2.372a9.051,9.051,0,0,1-1.825-.8c-.394-.233-.793-.464-1.193-.7A18.108,18.108,0,0,1,14.747,3.7c.48-.44.943-.867,1.435-1.287.241-.206.749-.586.781-.607a3.488,3.488,0,0,0,.572-.4M16.061,7.129c-.455,1.353-.908,2.707-1.254,4.084-.3,1.184-.819,2.234-1.054,3.432l-.007.035c-1.21-.364-2.353-.847-3.584-1.187a8.521,8.521,0,0,0-.978-.19,14.2,14.2,0,0,1,2.152-5.489c.484-.706,1.023-1.448,1.6-2.161a18.78,18.78,0,0,0,3.121,1.475M10.605,21.567c.327.044.682.089,1.034.149-.225.76-.446,1.519-.668,2.285-.249.865-.652,1.681-.841,2.553-.074.334-.179.656-.274.983a1.768,1.768,0,0,1-.079.227.128.128,0,0,0-.086.035.159.159,0,0,0-.042.095c-.309-.295-.391-1.191-.467-1.575a22.338,22.338,0,0,1-.64-2.524c-.055-.875-.085-1.7-.09-2.5.776.067,1.566.2,2.153.277m6-5.712c-.865-.354-1.615-.79-2.509-1.063.643-2.541,1.473-5.052,2.306-7.552a13.43,13.43,0,0,0,3.123.617,32.892,32.892,0,0,1-1.483,8.53c-.48-.165-.961-.337-1.438-.532M16.507,1.729a18.97,18.97,0,0,0-3.178,3.025c-.146.192-.3.383-.451.573a22.385,22.385,0,0,1-2.473-1.643,23.275,23.275,0,0,1,4.1-1.827,7.74,7.74,0,0,1,2.241-.545c.15-.017.3-.031.443-.054-.225.16-.468.295-.684.471m-6.049,2.4c.779.5,1.521.968,2.258,1.4a25.008,25.008,0,0,0-1.856,2.39,15.641,15.641,0,0,0-2.067,5.326l-.052-.007c-.074-.013-.22-.038-.257-.048-1.56-.465-3.027-.9-4.5-1.456A8.738,8.738,0,0,1,4.5,10.405,25.866,25.866,0,0,1,8.52,4.788a6.43,6.43,0,0,1,1.247-.723c.106-.067.216-.131.324-.2.118.09.241.178.367.258M5.153,12.556a15.866,15.866,0,0,0,3.578,1q-.085.461-.147.923c-.165,1.252-.366,2.54-.421,3.8,0,.036,0,.077-.006.118-.041.886-.08,1.764-.087,2.642a6.181,6.181,0,0,0-1.522.045c-.687.139-1.436.316-2.161.433a17.1,17.1,0,0,1-.666-3.305,16.714,16.714,0,0,1,.178-6.17c.433.16.859.332,1.255.515m1.394,8.818a4.772,4.772,0,0,1,1.522-.111,22.192,22.192,0,0,0,.159,2.9,24.849,24.849,0,0,0,1,3.538c.02.067.048.166.085.268-.773-.752-1.653-1.5-2.21-2.152-.223-.26-.446-.512-.65-.784-.223-.3-.676-.9-.713-.937A7.619,7.619,0,0,1,4.485,21.8a14.992,14.992,0,0,0,2.062-.43M9.691.7a4.046,4.046,0,0,1,.4-.121c.134,0,.4-.034.4.01,0,.442.959.013,1.427-.07.1-.02.292-.074.328-.085a4.872,4.872,0,0,1,.9-.124h.092c.267,0,.8.034.84.036.739.085,1.452.242,2.194.309.257.025.512.051.768.069.121.006.366.023.366.023.09.028.184.054.278.082a3.5,3.5,0,0,1-.608.13,3.158,3.158,0,0,1-.439.047c-1.079-.281-2.951.825-3.894,1.209A28.138,28.138,0,0,0,10.1,3.438c-.187-.156-.367-.316-.541-.484A16.165,16.165,0,0,0,8.316,1.83c-.143-.109-.379-.277-.548-.388.4-.176.793-.338,1.147-.467.257-.09.516-.188.776-.273M4.132,4.215A7.519,7.519,0,0,1,5.365,3.041c.372-.286,1.108-.43,1.108-.878,0-.3.8-.5.837-.518.071-.034.141-.064.213-.095a3.572,3.572,0,0,0,.558.487c.605.488,1.111,1.072,1.7,1.576a13.67,13.67,0,0,0-1.33.837,11.714,11.714,0,0,0-1.43,1.524A17.218,17.218,0,0,0,4.168,10.3a8.155,8.155,0,0,0-.446,1.327c-.133-.051-.262-.1-.394-.149A7.654,7.654,0,0,0,1.5,11.018c-.249-.029-.69-.125-.87-.16A18.274,18.274,0,0,1,2.049,6.906,30.287,30.287,0,0,1,4.132,4.215M1.156,19.926c-.029-.077-.095-.235-.1-.268a40.027,40.027,0,0,1-.625-4.474C.4,14.681.352,14.21.33,13.7c-.007-.258,0-.773,0-.806.077-.563.15-1.121.227-1.682l0-.041c.122.025.271.05.35.058a6.837,6.837,0,0,1,1.023.2,16.846,16.846,0,0,1,1.709.512c-.153.666-.267,1.343-.414,1.992a1.554,1.554,0,0,0-.026.331l.012-.19a53.374,53.374,0,0,0,.274,5.342,5.733,5.733,0,0,0,.22.936c.092.329.274.981.289,1.012.029.064.057.128.086.192-.2.026-.388.05-.576.064l-1.462.1a1.5,1.5,0,0,1-.287-.015,4.6,4.6,0,0,1-.452-1.079c-.044-.226-.139-.674-.153-.707M4.461,25.41a9.565,9.565,0,0,1-2.54-3.369c.761-.041,1.529-.1,2.292-.2A13.242,13.242,0,0,0,6.4,25.534a11.683,11.683,0,0,1,1.134,1.222c-.019.05.526.494.611.582.182.188.658.7.779.662.095-.031.192.044.28.147-.281-.079-.558-.16-.828-.248A16.319,16.319,0,0,1,4.461,25.41m13.713,3.127c-.232.122-.564.074-.8.185a2.642,2.642,0,0,1-.475.125c-.267.054-.538.1-.8.165a4.472,4.472,0,0,1-.475.1,26.405,26.405,0,0,1-5.508-.73c.523.054,1.177-.147,1.631-.077.407.064,1.091-.5,1.426-.639a4.253,4.253,0,0,0,.513-.169c0-.121.364-.134.4-.168a5.482,5.482,0,0,1,1.2-.64c.063-.034.264-.1.191-.1-.125,0,.6-.41.658-.451.216-.141.41-.3.611-.458a7.189,7.189,0,0,0,.672-.555l.02-.019a10.481,10.481,0,0,1,1.092,1.244,5.717,5.717,0,0,1,.553,1.08,6.653,6.653,0,0,0,.332.583,8.367,8.367,0,0,0-1.232.526m8.86-6.927c-.172.35-.432.66-.633.993-.1.162-.293.484-.315.512a15.061,15.061,0,0,1-2.355,2.193A10.926,10.926,0,0,1,20.661,27.6c-.343.122-.641.216-.927.308a1.357,1.357,0,0,0-.152-.2c-.054-.1-.165-.306-.175-.34A7.177,7.177,0,0,0,17.7,24.84l.442-.44a16.757,16.757,0,0,0,4.534-5.383c.175-.356.34-.709.481-1.069.181.029.507.16.544.165a22.593,22.593,0,0,1,2.852.763l.621.141c.111.028.329.017.329.034,0,.128.268.16.442.166a12.047,12.047,0,0,1-.905,2.394M28.3,17.067c-.007,0-.044.289-.048.3-.036.239-.163.706-.163.706l-.007.067A4.279,4.279,0,0,1,28,18.93c-.248.01-.649,0-.649-.181a3.5,3.5,0,0,0-.585-.162,17.345,17.345,0,0,1-2.158-.609c-.337-.093-1.023-.239-1.061-.255a1.8,1.8,0,0,0-.278-.1,7.157,7.157,0,0,0,.217-.725c.095-.4.281-1.212.284-1.245.136-1.51.363-2.951.363-4.477a11.312,11.312,0,0,0-.227-1.68,2.858,2.858,0,0,0-.219-.538,7.809,7.809,0,0,0-.274-.975c-.019-.054-.048-.125-.077-.2.144-.017.286-.029.432-.051.471-.067.951-.108,1.426-.162.172-.02.512-.093.548-.09.077.007.208.019.292.032a4.991,4.991,0,0,1,.59.984,12.719,12.719,0,0,1,1.62,6.011,9.284,9.284,0,0,1,.032,1.986c-.029.188.235.572.026.572" transform="translate(0 0)" fill="#020203"/>
  </g>
</svg>
