<?xml version="1.0" encoding="utf-8"?>
<!-- Generator: Adobe Illustrator 26.0.2, SVG Export Plug-In . SVG Version: 6.00 Build 0)  -->
<!DOCTYPE svg PUBLIC "-//W3C//DTD SVG 1.1//EN" "http://www.w3.org/Graphics/SVG/1.1/DTD/svg11.dtd" [
	<!ENTITY ns_extend "http://ns.adobe.com/Extensibility/1.0/">
	<!ENTITY ns_ai "http://ns.adobe.com/AdobeIllustrator/10.0/">
	<!ENTITY ns_graphs "http://ns.adobe.com/Graphs/1.0/">
	<!ENTITY ns_vars "http://ns.adobe.com/Variables/1.0/">
	<!ENTITY ns_imrep "http://ns.adobe.com/ImageReplacement/1.0/">
	<!ENTITY ns_sfw "http://ns.adobe.com/SaveForWeb/1.0/">
	<!ENTITY ns_custom "http://ns.adobe.com/GenericCustomNamespace/1.0/">
	<!ENTITY ns_adobe_xpath "http://ns.adobe.com/XPath/1.0/">
]>
<svg version="1.1" id="Ebene_1" xmlns:x="&ns_extend;" xmlns:i="&ns_ai;" xmlns:graph="&ns_graphs;"
	 xmlns="http://www.w3.org/2000/svg" xmlns:xlink="http://www.w3.org/1999/xlink" x="0px" y="0px" viewBox="0 0 212 217"
	 style="enable-background:new 0 0 212 217;" xml:space="preserve">
<style type="text/css">
	.Schlagschatten{fill:none;}
	.Schein_x0020_nach_x0020_außen_x0020__x002D__x0020_5_x0020_Pt_x002E_{fill:none;}
	.Blauer_x0020_Neonrahmen{fill:none;stroke:#8AACDA;stroke-width:7;stroke-linecap:round;stroke-linejoin:round;}
	.Lichter_x0020_Chrom{fill:url(#SVGID_1_);stroke:#FFFFFF;stroke-width:0.3629;stroke-miterlimit:1;}
	.Jive_GS{fill:#FFDD00;}
	.Alyssa_GS{fill:#A6D0E4;}
	.st0{fill:#FFFFFF;}
</style>
<metadata>
	<sfw  xmlns="&ns_sfw;">
		<slices></slices>
		<sliceSourceBounds  bottomLeftOrigin="true" height="216.1" width="210.7" x="460" y="-762.8"></sliceSourceBounds>
	</sfw>
</metadata>
<linearGradient id="SVGID_1_" gradientUnits="userSpaceOnUse" x1="-459" y1="-546" x2="-459" y2="-547">
	<stop  offset="0" style="stop-color:#656565"/>
	<stop  offset="0.618" style="stop-color:#1B1B1B"/>
	<stop  offset="0.6292" style="stop-color:#545454"/>
	<stop  offset="0.9831" style="stop-color:#3E3E3E"/>
</linearGradient>
<g id="circle-white">
	<g id="Gruppe_3" transform="translate(9.921 12.738)">
		<g id="Gruppe_2">
			<g id="Gruppe_1">
				<path id="Pfad_3" class="st0" d="M51.9,196.7l1.2,0.6c0.8,0.3,2,0.9,3.6,1.5c4.6,1.8,9.5,3.1,14.4,3.9c3.5,0.6,7,0.9,10.6,0.9
					c4.2,0.1,8.3-0.2,12.4-0.7c4.7-0.6,9.3-1.7,13.9-3c5-1.5,9.9-3.4,14.6-5.6c10.7-5.1,20.6-11.6,29.5-19.3
					c10-8.6,18.9-18.4,26.4-29.2c4-5.7,7.5-11.7,10.6-17.9c1.6-3.2,3-6.4,4.3-9.7c1.3-3.3,2.4-6.7,3.3-10.1c0.9-3.5,1.6-7,2.1-10.5
					c0.3-1.8,0.4-3.6,0.5-5.4c0.1-1.8,0.1-3.6,0.1-5.4s-0.1-3.6-0.3-5.4c-0.1-0.9-0.2-1.8-0.3-2.7c-0.1-0.4-0.1-0.9-0.2-1.3
					l-0.3-1.3c-0.4-1.7-0.8-3.5-1.3-5.2c-0.2-0.9-0.5-1.7-0.8-2.6c-0.1-0.4-0.3-0.9-0.4-1.3s-0.3-0.9-0.5-1.3l-0.5-1.3l-0.6-1.2
					l-0.3-0.6l-0.3-0.6l-0.6-1.2l-0.6-1.2l-0.3-0.6l-0.3-0.6l-0.7-1.2l-0.7-1.2c-0.2-0.4-0.5-0.8-0.7-1.2c-0.3-0.4-0.5-0.7-0.7-1.2
					c-0.5-0.7-1-1.5-1.6-2.2c-1-1.5-2.2-2.9-3.3-4.3c-2.3-2.8-4.8-5.3-7.5-7.8c-2.7-2.4-5.5-4.7-8.4-6.8c-5.8-4.1-11.9-7.8-18.2-11
					c-3.2-1.6-6.3-3-9.6-4.4c-0.8-0.3-1.6-0.7-2.4-1c-0.8-0.3-1.6-0.6-2.4-1c-1.6-0.6-3.2-1.2-4.8-1.8c-6.4-2.3-12.9-4.3-19.3-5.9
					C105.3,5.8,99,4.5,92.6,3.6C80.9,1.9,69,1.9,57.3,3.7c-2.7,0.4-5.3,1-7.8,1.7s-5,1.4-7.3,2.3c-4.4,1.6-8.7,3.7-12.8,6.1
					c-1.9,1.2-3.7,2.4-5.4,3.6c-1.7,1.3-3.2,2.5-4.6,3.8c-2.7,2.3-5.1,4.9-7.4,7.6c-1,1.2-2,2.4-2.8,3.6s-1.6,2.2-2.3,3.3
					c-1.4,2-2.5,3.9-3.4,5.4c-0.9,1.5-1.5,2.7-1.9,3.5S1,45.6,1,45.6s0.2-0.4,0.6-1.2c0.4-0.8,1-2,1.8-3.5c0.8-1.5,1.9-3.3,3.2-5.5
					c1.5-2.4,3.2-4.7,5-7c2.2-2.8,4.7-5.4,7.3-7.8c3.1-2.9,6.4-5.4,10-7.7c4.1-2.6,8.3-4.7,12.8-6.4c5-1.9,10.1-3.3,15.3-4.3
					c5.7-1,11.4-1.6,17.2-1.6C80.5,0.6,86.6,1,92.8,1.8c6.5,0.8,12.9,2,19.2,3.6c6.5,1.6,13,3.6,19.5,5.9c6.6,2.3,13.1,5,19.5,8.1
					c6.5,3.2,12.7,6.9,18.6,11.1c3,2.1,5.8,4.5,8.5,6.9c2.8,2.5,5.3,5.1,7.7,8c1.2,1.4,2.4,2.9,3.5,4.4c0.6,0.7,1.1,1.5,1.6,2.3
					c0.3,0.4,0.5,0.8,0.8,1.2s0.5,0.8,0.7,1.2l0.7,1.2l0.7,1.2l0.3,0.6l0.3,0.6l0.6,1.3l0.6,1.3l0.3,0.6l0.3,0.6
					c0.2,0.4,0.4,0.9,0.6,1.3l0.5,1.3c0.2,0.4,0.3,0.9,0.5,1.3c0.1,0.4,0.3,0.9,0.5,1.3c0.3,0.9,0.6,1.8,0.9,2.7
					c0.5,1.8,1,3.6,1.3,5.5l0.3,1.4c0.1,0.4,0.1,0.9,0.2,1.4c0.1,0.9,0.3,1.9,0.4,2.8c0.2,1.9,0.3,3.7,0.3,5.6c0,1.9,0,3.7-0.1,5.6
					c-0.1,1.9-0.3,3.7-0.6,5.5c-0.5,3.6-1.3,7.3-2.2,10.8c-1,3.5-2.1,7-3.5,10.3c-1.3,3.4-2.8,6.7-4.4,9.8
					c-3.2,6.3-6.8,12.3-10.9,18.1c-7.7,10.9-16.8,20.8-27,29.4c-9.1,7.7-19.2,14.2-30.1,19.2c-9.2,4.3-18.9,7.1-28.9,8.4
					c-4.2,0.5-8.4,0.7-12.6,0.6c-3.6-0.1-7.1-0.5-10.6-1.2c-2.8-0.5-5.6-1.2-8.4-2c-2.4-0.7-4.4-1.5-6-2.1s-2.8-1.2-3.6-1.6
					C52.3,196.9,51.9,196.7,51.9,196.7z"/>
			</g>
		</g>
	</g>
	<g id="Gruppe_4" transform="translate(4.445 13.03)">
		<path id="Pfad_4" class="st0" d="M104.5,201.1c-10.8,0-21.6-1.6-31.9-4.9c-12.9-4-25-10.5-35.4-19.1C-5.4,142.3-11.6,79.6,23.3,37
			s97.7-48.8,140.2-14c0.2,0.2,0.4,0.3,0.5,0.5c10.4,8.6,19.1,19.2,25.5,31.1c6.3,11.7,10.3,24.4,12,37.5c1.7,13,0.8,26.2-2.5,38.9
			c-6.9,26.2-25,48.1-49.4,59.9c-11.8,5.7-24.6,9.1-37.8,9.9C109.3,201.1,107,201.1,104.5,201.1z M100.8,3.1c-3.1,0-6.2,0.1-9.4,0.4
			C37.9,8.6-1.3,56.1,3.8,109.5c2.4,25.7,15,49.4,35,65.8c10.2,8.4,22,14.7,34.6,18.6c12.4,3.9,25.3,5.4,38.2,4.5
			c12.8-0.8,25.3-4.1,36.9-9.7c11.8-5.7,22.1-13.8,30.5-23.9l0.9,0.8l-0.9-0.8c8.3-10.1,14.4-21.8,17.7-34.4
			c3.3-12.4,4.1-25.3,2.5-38c-1.6-12.9-5.6-25.3-11.7-36.7c-6.2-11.7-14.7-22-24.9-30.4c-10-8.3-21.6-14.5-34-18.2
			C119.5,4.5,110.1,3.1,100.8,3.1L100.8,3.1z"/>
	</g>
	<g id="Gruppe_5" transform="translate(9.24 0)">
		<path id="Pfad_5" class="st0" d="M100.5,208.6c-5.4,0-10.9-0.5-16.2-1.5c-12.3-2.4-24.1-7.2-34.5-14.3
			c-10.9-7.2-20.3-16.5-27.8-27.2C5.9,142.7-1.3,114.8,1.7,86.9c1.4-13,5.2-25.6,11.2-37.2c5.7-11.2,13.7-21.1,23.3-29.2
			C55.8,4.1,81.8-2.6,107,2.2c12.3,2.4,24.1,7.2,34.5,14.3c10.9,7.2,20.3,16.5,27.8,27.2c16.1,22.9,23.3,50.9,20.4,78.7
			c-1.4,13-5.2,25.6-11.1,37.2c-5.7,11.2-13.7,21.1-23.3,29.2C139.8,201.6,120.5,208.6,100.5,208.6L100.5,208.6z M90.8,3.1
			c-19.4,0-38.2,6.8-53.1,19.3c-9.4,7.9-17.1,17.6-22.7,28.5C9.1,62.2,5.4,74.5,4,87.2c-2.9,27.3,4.2,54.6,19.9,77.1
			c7.3,10.5,16.5,19.4,27.2,26.5c10.2,6.9,21.6,11.6,33.6,13.9c24.5,4.7,49.8-1.8,68.9-17.8c9.4-7.9,17.1-17.6,22.7-28.5
			c5.9-11.3,9.5-23.7,10.9-36.4c2.9-27.3-4.2-54.6-19.9-77.1c-7.3-10.5-16.5-19.4-27.2-26.5C130,11.6,118.5,6.9,106.5,4.5
			C101.3,3.6,96,3.1,90.8,3.1z"/>
	</g>
	<path id="Pfad_6" class="st0" d="M1,131c0.5,3,1.2,5.9,2,8.7c0.8,2.9,1.8,5.9,2.9,8.8s2.3,5.8,3.6,8.5s2.8,5.4,4.2,7.9
		c1.5,2.5,3,4.9,4.5,7.1c1.5,2.2,3.1,4.2,4.6,6s2.9,3.4,4.2,4.8c0.7,0.7,1.3,1.3,1.9,1.9c0.3,0.3,0.6,0.6,0.9,0.8
		c0.3,0.3,0.5,0.5,0.8,0.7c0.5,0.5,0.9,0.9,1.3,1.2c0.4,0.4,0.7,0.7,1,0.9c0.6,0.5,0.9,0.7,0.9,0.7s-0.3-0.3-0.9-0.7
		c-0.3-0.2-0.6-0.5-1-0.9c-0.4-0.3-0.9-0.7-1.4-1.2c-0.3-0.2-0.5-0.5-0.8-0.7c-0.3-0.3-0.6-0.5-0.9-0.8c-0.6-0.6-1.2-1.2-1.9-1.9
		c-1.3-1.3-2.8-2.9-4.3-4.7s-3.1-3.8-4.7-5.9c-1.6-2.2-3.2-4.5-4.6-7c-3.1-5.2-5.8-10.7-8-16.5c-1.1-2.9-2.1-5.9-2.9-8.8"/>
</g>
<g id="dontplay" transform="translate(23.673 39.495)">
	<path id="Pfad_439" class="st0" d="M162.3,71.7c-22.2-10-44.4-19.7-66.4-30.2c-10.9-5.3-21.8-10.7-32.8-16
		c-5.3-2.5-10.5-5.1-15.9-7.5c-4.8-2.1-9.6-4.3-14.9-4.6c-0.8,0-1,0.9-0.6,1.4c-0.4,0.4-0.6,0.9-0.6,1.4
		c-0.4,36.8-0.8,73.7-1.3,110.6c0.1,2,1.7,3.6,3.7,3.5c0.3,0,0.6-0.1,0.9-0.1c20.6-7.1,40.9-15.1,61.1-23.4
		c10-4.1,19.9-8.3,29.8-12.6c10-4.4,20.3-8.4,29.8-13.7c0.1,0,0.1-0.1,0.2-0.1l1.7,0.7c2.7,1.1,5.8,0.6,7.3-2.1
		C165.7,76.6,164.9,72.9,162.3,71.7z M122.5,86.1c-9.9,4.6-19.8,9-29.9,13.4c-18.4,7.9-36.9,15.1-55.6,22.2
		c-0.5-34.4-1-68.7-1.6-103.1c2.9,2.3,5.9,4.3,9,6.1c5.2,3.2,10.5,6,15.9,9c10.4,5.8,21,11.3,31.6,16.7
		c17.1,8.9,34.5,17.7,52.3,25.5C136.9,79,129.8,82.7,122.5,86.1z"/>
	<path id="Pfad_440" class="st0" d="M145.4,2.4c-22.5,22.1-45.5,43.7-69.1,64.7C64.6,77.5,52.7,87.7,40.6,97.7
		c-12.2,10.1-25.4,19.4-36.7,30.6c-2.5,2.5,0,7.7,3.5,5.6c13.5-7.9,25.5-18.5,37.6-28.4c12.3-10.2,24.4-20.5,36.2-31.1
		c23.8-21.2,46.6-43.5,68.2-67C152.2,4.4,148.4-0.5,145.4,2.4z"/>
</g>
</svg>
